<?xml version="1.0" encoding="utf-8"?>
<!-- Generator: Adobe Illustrator 27.6.1, SVG Export Plug-In . SVG Version: 6.00 Build 0)  -->
<svg version="1.1" id="Layer_1" xmlns="http://www.w3.org/2000/svg" xmlns:xlink="http://www.w3.org/1999/xlink" x="0px" y="0px"
	 viewBox="0 0 18 18" style="enable-background:new 0 0 18 18;" xml:space="preserve">
<style type="text/css">
	.st0{fill:#231F20;}
</style>
<path class="st0" d="M10.4,9l6.3-6.3C16.9,2.5,17,2.3,17,2s-0.1-0.5-0.3-0.7C16.5,1.1,16.3,1,16,1c-0.3,0-0.5,0.1-0.7,0.3L9,7.6
	L2.7,1.3C2.5,1.1,2.3,1,2,1S1.5,1.1,1.3,1.3C1.1,1.5,1,1.7,1,2s0.1,0.5,0.3,0.7L7.6,9l-6.3,6.3c-0.1,0.1-0.2,0.2-0.2,0.3
	C1,15.7,1,15.9,1,16s0,0.3,0.1,0.4c0.1,0.1,0.1,0.2,0.2,0.3c0.1,0.1,0.2,0.2,0.3,0.2S1.9,17,2,17s0.3,0,0.4-0.1s0.2-0.1,0.3-0.2
	L9,10.4l6.3,6.3c0.1,0.1,0.2,0.2,0.3,0.2C15.7,17,15.9,17,16,17c0.1,0,0.3,0,0.4-0.1c0.1-0.1,0.2-0.1,0.3-0.2
	c0.1-0.1,0.2-0.2,0.2-0.3C17,16.3,17,16.1,17,16s0-0.3-0.1-0.4c-0.1-0.1-0.1-0.2-0.2-0.3L10.4,9z"/>
</svg>
