<?xml version="1.0" encoding="utf-8"?>
<!-- Generator: Adobe Illustrator 27.6.1, SVG Export Plug-In . SVG Version: 6.00 Build 0)  -->
<svg version="1.1" id="Layer_1" xmlns="http://www.w3.org/2000/svg" xmlns:xlink="http://www.w3.org/1999/xlink" x="0px" y="0px"
	 viewBox="0 0 20 12" style="enable-background:new 0 0 20 12;" xml:space="preserve">
<style type="text/css">
	.st0{fill:#231F20;}
</style>
<path class="st0" d="M9,2h10c0.3,0,0.5-0.1,0.7-0.3C19.9,1.5,20,1.3,20,1c0-0.3-0.1-0.5-0.3-0.7C19.5,0.1,19.3,0,19,0H9
	C8.7,0,8.5,0.1,8.3,0.3C8.1,0.5,8,0.7,8,1c0,0.3,0.1,0.5,0.3,0.7C8.5,1.9,8.7,2,9,2z M19,10H1c-0.3,0-0.5,0.1-0.7,0.3
	C0.1,10.5,0,10.7,0,11s0.1,0.5,0.3,0.7C0.5,11.9,0.7,12,1,12h18c0.3,0,0.5-0.1,0.7-0.3S20,11.3,20,11s-0.1-0.5-0.3-0.7
	S19.3,10,19,10L19,10z M1,7h18c0.3,0,0.5-0.1,0.7-0.3C19.9,6.5,20,6.3,20,6s-0.1-0.5-0.3-0.7C19.5,5.1,19.3,5,19,5H1
	C0.7,5,0.5,5.1,0.3,5.3C0.1,5.5,0,5.7,0,6s0.1,0.5,0.3,0.7C0.5,6.9,0.7,7,1,7z"/>
</svg>
