<?xml version="1.0" encoding="UTF-8"?>
<svg id="Layer_1" data-name="Layer 1" xmlns="http://www.w3.org/2000/svg" xmlns:xlink="http://www.w3.org/1999/xlink" viewBox="0 0 564.01 406.97">
  <defs>
    <style>
      .cls-1 {
        letter-spacing: -.02em;
      }

      .cls-2 {
        letter-spacing: -.04em;
      }

      .cls-3, .cls-4, .cls-5, .cls-6, .cls-7, .cls-8 {
        stroke: #231f20;
      }

      .cls-3, .cls-4, .cls-6 {
        stroke-width: .25px;
      }

      .cls-3, .cls-9, .cls-10, .cls-11 {
        font-size: 12px;
      }

      .cls-3, .cls-11 {
        font-family: VisueltPro-Light, 'Visuelt Pro';
        font-weight: 300;
      }

      .cls-12 {
        letter-spacing: -.08em;
      }

      .cls-13 {
        clip-path: url(#clippath-2);
      }

      .cls-13, .cls-14, .cls-7, .cls-8, .cls-15 {
        fill: none;
      }

      .cls-14 {
        clip-path: url(#clippath-1);
      }

      .cls-16 {
        letter-spacing: -.08em;
      }

      .cls-17, .cls-5 {
        fill: #fff;
      }

      .cls-18 {
        letter-spacing: -.02em;
      }

      .cls-19 {
        letter-spacing: -.01em;
      }

      .cls-20 {
        letter-spacing: 0em;
      }

      .cls-21 {
        letter-spacing: -.04em;
      }

      .cls-22 {
        letter-spacing: 0em;
      }

      .cls-5, .cls-6, .cls-7, .cls-8 {
        stroke-miterlimit: 10;
      }

      .cls-7 {
        stroke-width: 2px;
      }

      .cls-23 {
        letter-spacing: -.02em;
      }

      .cls-9 {
        font-family: VisueltPro-Black, 'Visuelt Pro';
        font-weight: 800;
      }

      .cls-10 {
        font-family: VisueltPro-Medium, 'Visuelt Pro';
        font-weight: 500;
      }

      .cls-24 {
        letter-spacing: 0em;
      }

      .cls-15 {
        clip-path: url(#clippath);
      }

      .cls-25 {
        letter-spacing: -.03em;
      }

      .cls-26 {
        letter-spacing: -.03em;
      }
    </style>
    <clipPath id="clippath">
      <rect class="cls-5" x="290.66" y=".5" width="100" height="80"/>
    </clipPath>
    <clipPath id="clippath-1">
      <rect class="cls-5" x="305.35" y="160.5" width="100" height="80"/>
    </clipPath>
    <clipPath id="clippath-2">
      <rect class="cls-5" x="290.5" y="320.5" width="100" height="80"/>
    </clipPath>
  </defs>
  <rect class="cls-5" x=".5" y="80.5" width="140" height="240"/>
  <circle class="cls-5" cx="199.89" cy="200.5" r="59.39"/>
  <text class="cls-9" transform="translate(188.11 203.55)"><tspan x="0" y="0">API</tspan></text>
  <text class="cls-10" transform="translate(10.57 101.19)"><tspan class="cls-19" x="0" y="0">D</tspan><tspan class="cls-25" x="8.4" y="0">a</tspan><tspan class="cls-22" x="14.72" y="0">tab</tspan><tspan class="cls-24" x="33.32" y="0">a</tspan><tspan x="39.98" y="0">se</tspan></text>
  <line class="cls-7" x1="69.61" y1="96.69" x2="129.61" y2="96.69"/>
  <line class="cls-7" x1="10.5" y1="112.94" x2="130.5" y2="112.94"/>
  <line class="cls-7" x1="10.5" y1="127.66" x2="130.5" y2="127.66"/>
  <line class="cls-7" x1="10.5" y1="142.38" x2="130.5" y2="142.38"/>
  <line class="cls-7" x1="10.5" y1="157.1" x2="130.5" y2="157.1"/>
  <line class="cls-7" x1="10.5" y1="171.82" x2="130.5" y2="171.82"/>
  <line class="cls-7" x1="10.5" y1="186.54" x2="130.5" y2="186.54"/>
  <line class="cls-7" x1="10.5" y1="201.26" x2="130.5" y2="201.26"/>
  <line class="cls-7" x1="10.5" y1="215.98" x2="130.5" y2="215.98"/>
  <line class="cls-7" x1="10.5" y1="230.7" x2="130.5" y2="230.7"/>
  <line class="cls-7" x1="10.5" y1="245.42" x2="130.5" y2="245.42"/>
  <line class="cls-7" x1="10.5" y1="260.14" x2="130.5" y2="260.14"/>
  <line class="cls-7" x1="10.5" y1="274.87" x2="130.5" y2="274.87"/>
  <line class="cls-7" x1="10.5" y1="289.59" x2="130.5" y2="289.59"/>
  <line class="cls-7" x1="10.5" y1="304.31" x2="130.5" y2="304.31"/>
  <line class="cls-7" x1="232.06" y1="150.57" x2="290.66" y2="80.5"/>
  <g>
    <rect class="cls-17" x="290.66" y=".5" width="100" height="80"/>
    <g class="cls-15">
      <g>
        <path class="cls-6" d="m298.72,37.25v-.7l4.02-2.2v.79l-3.2,1.75,3.2,1.75v.79l-4.02-2.2Z"/>
        <path class="cls-6" d="m305.48,40.25c-.41-.24-.74-.6-.97-1.07s-.35-1.03-.35-1.68.12-1.21.36-1.68c.24-.47.56-.83.97-1.07.4-.24.85-.37,1.35-.37.4,0,.77.08,1.12.23.34.16.63.37.86.64v-3.52h.74v8.76h-.74v-.84c-.22.28-.5.51-.83.69-.33.18-.7.27-1.12.27-.51,0-.97-.12-1.39-.37Zm2.48-.59c.29-.18.5-.41.64-.69.14-.28.21-.59.21-.92v-1.09c0-.35-.08-.67-.23-.95-.16-.28-.38-.51-.67-.68s-.62-.25-1-.25c-.62,0-1.11.21-1.47.64-.36.42-.55,1.02-.55,1.79s.17,1.38.52,1.8c.35.42.85.62,1.49.62.41,0,.76-.09,1.04-.26Z"/>
        <path class="cls-6" d="m312.27,40.22c-.46-.27-.81-.64-1.06-1.12s-.38-1.01-.38-1.6.13-1.13.38-1.6c.25-.48.61-.85,1.06-1.12s.98-.4,1.57-.4,1.12.13,1.57.4c.46.27.81.64,1.06,1.12.25.48.38,1.01.38,1.6s-.13,1.13-.38,1.6-.61.85-1.06,1.12c-.46.27-.98.4-1.57.4s-1.12-.13-1.57-.4Zm2.7-.57c.34-.18.62-.46.83-.83.21-.37.31-.81.31-1.32s-.1-.95-.31-1.32c-.21-.37-.48-.64-.83-.83s-.72-.28-1.13-.28-.78.09-1.13.28c-.34.18-.62.46-.83.83-.21.37-.31.81-.31,1.32s.1.95.31,1.32c.21.37.48.64.83.83.34.18.72.28,1.13.28s.78-.09,1.13-.28Z"/>
        <path class="cls-6" d="m319.24,40.23c-.44-.26-.79-.63-1.04-1.1-.25-.47-.38-1.02-.38-1.63s.13-1.16.38-1.63.6-.84,1.04-1.1c.44-.26.95-.39,1.52-.39.78,0,1.41.19,1.88.57s.76.92.87,1.63h-.71c-.11-.48-.34-.85-.68-1.11-.34-.26-.79-.39-1.34-.39-.42,0-.8.1-1.14.31-.34.2-.6.49-.79.86-.19.37-.29.79-.29,1.26s.1.89.29,1.26c.19.37.46.65.79.86.34.2.72.31,1.14.31.58,0,1.02-.13,1.34-.38.32-.25.54-.63.68-1.12h.71c-.08.66-.37,1.19-.86,1.59s-1.12.61-1.88.61c-.57,0-1.07-.13-1.52-.39Z"/>
        <path class="cls-6" d="m325.51,40.23c-.22-.26-.33-.6-.33-1.01v-4.09h-1.13v-.62h1.13v-1.8l.74.28v1.52h1.38v.62h-1.38v3.98c0,.31.07.54.2.68.14.14.34.21.6.21.1,0,.2-.01.29-.03.09-.02.18-.05.29-.08v.61c-.25.08-.52.12-.8.12-.44,0-.77-.13-.99-.39Z"/>
        <path class="cls-6" d="m330.34,39.91l-2.34-5.41h.86l1.67,3.91.13.68,1.81-4.6h.82l-3.34,8.4h-.79l1.18-2.99Z"/>
        <path class="cls-6" d="m334.35,34.5h.74v.85c.22-.28.5-.51.85-.7.35-.18.75-.28,1.22-.28.5,0,.94.12,1.33.37.39.24.7.6.92,1.07.22.47.34,1.03.34,1.68s-.11,1.21-.34,1.68c-.23.47-.54.83-.94,1.07-.4.24-.85.37-1.36.37-.42,0-.81-.08-1.15-.25-.34-.16-.63-.4-.86-.71v3.24h-.74v-8.4Zm4.12,4.79c.36-.42.54-1.02.54-1.79s-.17-1.38-.52-1.8-.84-.62-1.48-.62c-.41,0-.76.09-1.04.28s-.51.42-.65.72c-.15.3-.22.61-.22.94v1.06c0,.29.08.58.25.86.16.29.39.53.68.71s.62.28.99.28c.61,0,1.09-.21,1.45-.63Z"/>
        <path class="cls-6" d="m342.08,40.23c-.43-.26-.77-.63-1.01-1.1-.24-.47-.36-1.02-.36-1.63s.13-1.15.38-1.63.6-.84,1.03-1.1c.44-.26.91-.39,1.43-.39s.99.12,1.4.35.74.57.97,1.01c.24.44.35.96.35,1.55v.36h-4.75c0,.68.2,1.23.58,1.65s.87.63,1.47.63c.53,0,.93-.12,1.21-.37.28-.24.47-.57.59-.97h.74c-.16.63-.45,1.13-.88,1.49s-.99.54-1.67.54c-.56,0-1.06-.13-1.49-.39Zm3.46-3.21c0-.35-.1-.68-.26-.98s-.4-.54-.7-.71c-.3-.17-.64-.26-1.01-.26-.57,0-1.03.18-1.39.54-.36.36-.57.83-.64,1.4h4.01Z"/>
        <path class="cls-6" d="m347.29,35.18h4.51v.67h-4.51v-.67Zm0,2.28h4.51v.67h-4.51v-.67Z"/>
        <path class="cls-6" d="m355.69,34.35c-.12-.13-.17-.31-.17-.55,0-.36.12-.7.35-1.02.23-.32.58-.59,1.03-.8l.13.25c-.25.13-.45.29-.6.48-.15.19-.24.39-.25.59.17,0,.31.07.42.19.11.12.17.26.17.42,0,.18-.06.33-.18.45-.12.12-.27.19-.44.19s-.33-.07-.45-.2Zm1.68,0c-.12-.13-.17-.31-.17-.55,0-.36.12-.7.35-1.02s.58-.59,1.03-.8l.13.25c-.25.13-.45.29-.6.48-.15.19-.24.39-.25.59.17,0,.31.07.42.19.11.12.17.26.17.42,0,.18-.06.33-.18.45-.12.12-.27.19-.44.19-.18,0-.33-.07-.45-.2Z"/>
        <path class="cls-6" d="m360.03,31.74h.74v3.74c.25-.31.57-.57.95-.79.39-.21.83-.32,1.33-.32.6,0,1.07.18,1.42.55.35.36.52.84.52,1.43v4.14h-.74v-4.19c0-.39-.13-.7-.38-.91-.26-.22-.6-.32-1.02-.32-.39,0-.77.12-1.15.36-.37.24-.68.55-.93.92v4.14h-.74v-8.76Z"/>
        <path class="cls-6" d="m367.27,40.23c-.22-.26-.33-.6-.33-1.01v-4.09h-1.13v-.62h1.13v-1.8l.74.28v1.52h1.38v.62h-1.38v3.98c0,.31.07.54.2.68.14.14.34.21.6.21.1,0,.2-.01.29-.03.09-.02.18-.05.29-.08v.61c-.25.08-.52.12-.8.12-.44,0-.77-.13-.99-.39Z"/>
        <path class="cls-6" d="m370.3,34.5h.74v.9c.18-.28.45-.52.79-.72.34-.2.7-.3,1.07-.3.77,0,1.29.32,1.56.97.24-.3.53-.54.86-.71.34-.17.7-.26,1.1-.26.54,0,.95.15,1.25.46.3.31.44.74.44,1.29v4.37h-.74v-4.19c0-.82-.38-1.24-1.13-1.24-.31,0-.62.1-.93.31-.31.21-.55.47-.74.78v4.33h-.74v-4.14c0-.41-.1-.72-.29-.95s-.46-.34-.79-.34c-.35,0-.68.12-.98.37-.3.24-.55.53-.74.87v4.19h-.76v-6Z"/>
        <path class="cls-6" d="m379.66,31.74h.74v8.76h-.74v-8.76Z"/>
        <path class="cls-6" d="m383.06,32.18c.12.13.17.31.17.55,0,.36-.12.7-.35,1.02-.23.32-.58.59-1.03.8l-.13-.25c.25-.13.45-.29.6-.48s.24-.39.25-.59c-.17,0-.31-.07-.42-.19-.11-.12-.17-.26-.17-.42,0-.18.06-.33.18-.45s.27-.19.44-.19.33.07.45.2Zm1.68,0c.12.13.17.31.17.55,0,.36-.12.7-.35,1.02-.23.32-.58.59-1.03.8l-.13-.25c.25-.13.45-.29.6-.48.15-.19.24-.39.25-.59-.17,0-.31-.07-.42-.19-.11-.12-.17-.26-.17-.42,0-.18.06-.33.18-.45s.27-.19.44-.19c.18,0,.33.07.45.2Z"/>
        <path class="cls-6" d="m386.45,38.65l3.2-1.75-3.2-1.75v-.79l4.02,2.2v.7l-4.02,2.2v-.79Z"/>
        <path class="cls-6" d="m298.72,51.65v-.7l4.02-2.2v.79l-3.2,1.75,3.2,1.75v.79l-4.02-2.2Z"/>
        <path class="cls-6" d="m304.47,46.14h.74v3.74c.25-.31.57-.57.95-.79.39-.21.83-.32,1.33-.32.6,0,1.07.18,1.42.55.35.36.52.84.52,1.43v4.14h-.74v-4.19c0-.39-.13-.7-.38-.91-.26-.22-.6-.32-1.02-.32-.39,0-.77.12-1.15.36-.37.24-.68.55-.93.92v4.14h-.74v-8.76Z"/>
        <path class="cls-6" d="m312.03,54.63c-.43-.26-.77-.63-1.01-1.1-.24-.47-.36-1.02-.36-1.63s.13-1.15.38-1.63.6-.84,1.03-1.1c.44-.26.91-.39,1.43-.39s.99.12,1.4.35.74.57.97,1.01c.24.44.35.96.35,1.55v.36h-4.75c0,.68.2,1.23.58,1.65s.87.63,1.47.63c.53,0,.93-.12,1.21-.37.28-.24.47-.57.59-.97h.74c-.16.63-.45,1.13-.88,1.49s-.99.54-1.67.54c-.56,0-1.06-.13-1.49-.39Zm3.46-3.21c0-.35-.1-.68-.26-.98s-.4-.54-.7-.71c-.3-.17-.64-.26-1.01-.26-.57,0-1.03.18-1.39.54-.36.36-.57.83-.64,1.4h4.01Z"/>
        <path class="cls-6" d="m317.63,54.53c-.33-.33-.49-.76-.49-1.3s.19-.99.58-1.3c.39-.32.88-.5,1.47-.56l1.86-.19v-.25c0-.97-.5-1.45-1.49-1.45-.38,0-.69.1-.94.31-.25.2-.39.48-.43.82h-.74c.05-.61.28-1.06.7-1.37.42-.3.9-.46,1.43-.46.7,0,1.24.19,1.63.56.39.38.58.9.58,1.56v2.77c0,.2.04.35.13.46.09.11.22.16.4.16.1,0,.21-.02.31-.05v.6c-.16.08-.35.12-.58.12-.3,0-.53-.09-.71-.28s-.28-.42-.3-.69c-.62.68-1.31,1.02-2.08,1.02-.57,0-1.02-.16-1.34-.49Zm3.42-1.4v-1.31l-1.64.17c-.47.05-.84.18-1.12.39-.27.21-.41.5-.41.86,0,.32.11.58.32.79.22.2.5.31.86.31.76,0,1.42-.4,1.98-1.2Z"/>
        <path class="cls-6" d="m324.47,54.65c-.41-.24-.74-.6-.97-1.07s-.35-1.03-.35-1.68.12-1.21.36-1.68c.24-.47.56-.83.97-1.07.4-.24.85-.37,1.35-.37.4,0,.77.08,1.12.23.34.16.63.37.86.64v-3.52h.74v8.76h-.74v-.84c-.22.28-.5.51-.83.69-.33.18-.7.27-1.12.27-.51,0-.97-.12-1.39-.37Zm2.48-.59c.29-.18.5-.41.64-.69.14-.28.21-.59.21-.92v-1.09c0-.35-.08-.67-.23-.95-.16-.28-.38-.51-.67-.68s-.62-.25-1-.25c-.62,0-1.11.21-1.47.64-.36.42-.55,1.02-.55,1.79s.17,1.38.52,1.8c.35.42.85.62,1.49.62.41,0,.76-.09,1.04-.26Z"/>
        <path class="cls-6" d="m330.27,53.05l3.2-1.75-3.2-1.75v-.79l4.02,2.2v.7l-4.02,2.2v-.79Z"/>
        <path class="cls-6" d="m308.8,66.05v-.7l4.02-2.2v.79l-3.2,1.75,3.2,1.75v.79l-4.02-2.2Z"/>
        <path class="cls-6" d="m314.56,63.3h.74v.9c.18-.28.45-.52.79-.72.34-.2.7-.3,1.07-.3.77,0,1.29.32,1.56.97.24-.3.53-.54.86-.71.34-.17.7-.26,1.1-.26.54,0,.95.15,1.25.46.3.31.44.74.44,1.29v4.37h-.74v-4.19c0-.82-.38-1.24-1.13-1.24-.31,0-.62.1-.93.31-.31.21-.55.47-.74.78v4.33h-.74v-4.14c0-.41-.1-.72-.29-.95s-.46-.34-.79-.34c-.35,0-.68.12-.98.37-.3.24-.55.53-.74.87v4.19h-.76v-6Z"/>
        <path class="cls-6" d="m324.98,69.03c-.43-.26-.77-.63-1.01-1.1-.24-.47-.36-1.02-.36-1.63s.13-1.15.38-1.63.6-.84,1.03-1.1c.44-.26.91-.39,1.43-.39s.99.12,1.4.35.74.57.97,1.01c.24.44.35.96.35,1.55v.36h-4.75c0,.68.2,1.23.58,1.65s.87.63,1.47.63c.53,0,.93-.12,1.21-.37.28-.24.47-.57.59-.97h.74c-.16.63-.45,1.13-.88,1.49s-.99.54-1.67.54c-.56,0-1.06-.13-1.49-.39Zm3.46-3.21c0-.35-.1-.68-.26-.98s-.4-.54-.7-.71c-.3-.17-.64-.26-1.01-.26-.57,0-1.03.18-1.39.54-.36.36-.57.83-.64,1.4h4.01Z"/>
        <path class="cls-6" d="m331.19,69.03c-.22-.26-.33-.6-.33-1.01v-4.09h-1.13v-.62h1.13v-1.8l.74.28v1.52h1.38v.62h-1.38v3.98c0,.31.07.54.2.68.14.14.34.21.6.21.1,0,.2-.01.29-.03.09-.02.18-.05.29-.08v.61c-.25.08-.52.12-.8.12-.44,0-.77-.13-.99-.39Z"/>
        <path class="cls-6" d="m334.41,68.93c-.33-.33-.49-.76-.49-1.3s.19-.99.58-1.3c.39-.32.88-.5,1.47-.56l1.86-.19v-.25c0-.97-.5-1.45-1.49-1.45-.38,0-.69.1-.94.31-.25.2-.39.48-.43.82h-.74c.05-.61.28-1.06.7-1.37.42-.3.9-.46,1.43-.46.7,0,1.24.19,1.63.56.39.38.58.9.58,1.56v2.77c0,.2.04.35.13.46.09.11.22.16.4.16.1,0,.21-.02.31-.05v.6c-.16.08-.35.12-.58.12-.3,0-.53-.09-.71-.28s-.28-.42-.3-.69c-.62.68-1.31,1.02-2.08,1.02-.57,0-1.02-.16-1.34-.49Zm3.42-1.4v-1.31l-1.64.17c-.47.05-.84.18-1.12.39-.27.21-.41.5-.41.86,0,.32.11.58.32.79.22.2.5.31.86.31.76,0,1.42-.4,1.98-1.2Z"/>
        <path class="cls-6" d="m344.2,69.03c-.44-.26-.79-.63-1.04-1.1-.25-.47-.38-1.02-.38-1.63s.13-1.16.38-1.63.6-.84,1.04-1.1c.44-.26.95-.39,1.52-.39.78,0,1.41.19,1.88.57s.76.92.87,1.63h-.71c-.11-.48-.34-.85-.68-1.11-.34-.26-.79-.39-1.34-.39-.42,0-.8.1-1.14.31-.34.2-.6.49-.79.86-.19.37-.29.79-.29,1.26s.1.89.29,1.26c.19.37.46.65.79.86.34.2.72.31,1.14.31.58,0,1.02-.13,1.34-.38.32-.25.54-.63.68-1.12h.71c-.08.66-.37,1.19-.86,1.59s-1.12.61-1.88.61c-.57,0-1.07-.13-1.52-.39Z"/>
        <path class="cls-6" d="m349.73,60.54h.74v3.74c.25-.31.57-.57.95-.79.39-.21.83-.32,1.33-.32.6,0,1.07.18,1.42.55.35.36.52.84.52,1.43v4.14h-.74v-4.19c0-.39-.13-.7-.38-.91-.26-.22-.6-.32-1.02-.32-.39,0-.77.12-1.15.36-.37.24-.68.55-.93.92v4.14h-.74v-8.76Z"/>
        <path class="cls-6" d="m356.44,68.93c-.33-.33-.49-.76-.49-1.3s.19-.99.58-1.3c.39-.32.88-.5,1.47-.56l1.86-.19v-.25c0-.97-.5-1.45-1.49-1.45-.38,0-.69.1-.94.31-.25.2-.39.48-.43.82h-.74c.05-.61.28-1.06.7-1.37.42-.3.9-.46,1.43-.46.7,0,1.24.19,1.63.56.39.38.58.9.58,1.56v2.77c0,.2.04.35.13.46.09.11.22.16.4.16.1,0,.21-.02.31-.05v.6c-.16.08-.35.12-.58.12-.3,0-.53-.09-.71-.28s-.28-.42-.3-.69c-.62.68-1.31,1.02-2.08,1.02-.57,0-1.02-.16-1.34-.49Zm3.42-1.4v-1.31l-1.64.17c-.47.05-.84.18-1.12.39-.27.21-.41.5-.41.86,0,.32.11.58.32.79.22.2.5.31.86.31.76,0,1.42-.4,1.98-1.2Z"/>
        <path class="cls-6" d="m362.6,63.3h.74v.9c.17-.28.41-.52.71-.72.31-.2.64-.3.99-.3.23,0,.4.03.52.1l-.13.64c-.1-.02-.24-.04-.42-.04-.33,0-.65.12-.96.37-.31.24-.55.56-.71.94v4.12h-.74v-6Z"/>
        <path class="cls-6" d="m367.92,69.11c-.44-.2-.8-.5-1.07-.9-.27-.4-.42-.87-.45-1.42h.82c.17,1.26.9,1.88,2.18,1.88.62,0,1.12-.17,1.49-.52s.55-.8.55-1.35c0-.34-.07-.62-.22-.84-.14-.22-.38-.41-.7-.56-.32-.15-.77-.29-1.34-.42-.85-.18-1.47-.45-1.88-.81-.4-.36-.61-.82-.61-1.39,0-.38.11-.73.32-1.04.22-.31.51-.55.89-.71s.79-.25,1.25-.25c.75,0,1.37.19,1.86.58.49.38.76.92.83,1.62h-.78c-.06-.46-.26-.81-.61-1.07-.35-.26-.78-.38-1.3-.38s-.9.11-1.2.34-.44.52-.44.9c0,.4.17.71.51.93.34.22.91.42,1.7.61.9.21,1.55.5,1.94.87.39.37.59.91.59,1.6,0,.52-.12.98-.37,1.39-.25.4-.59.72-1.02.94-.43.22-.92.33-1.46.33s-1.04-.1-1.48-.31Z"/>
        <path class="cls-6" d="m374.66,69.03c-.43-.26-.77-.63-1.01-1.1-.24-.47-.36-1.02-.36-1.63s.13-1.15.38-1.63.6-.84,1.03-1.1c.44-.26.91-.39,1.43-.39s.99.12,1.4.35.74.57.97,1.01c.24.44.35.96.35,1.55v.36h-4.75c0,.68.2,1.23.58,1.65s.87.63,1.47.63c.53,0,.93-.12,1.21-.37.28-.24.47-.57.59-.97h.74c-.16.63-.45,1.13-.88,1.49s-.99.54-1.67.54c-.56,0-1.06-.13-1.49-.39Zm3.46-3.21c0-.35-.1-.68-.26-.98s-.4-.54-.7-.71c-.3-.17-.64-.26-1.01-.26-.57,0-1.03.18-1.39.54-.36.36-.57.83-.64,1.4h4.01Z"/>
        <path class="cls-6" d="m380.87,69.03c-.22-.26-.33-.6-.33-1.01v-4.09h-1.13v-.62h1.13v-1.8l.74.28v1.52h1.38v.62h-1.38v3.98c0,.31.07.54.2.68.14.14.34.21.6.21.1,0,.2-.01.29-.03.09-.02.18-.05.29-.08v.61c-.25.08-.52.12-.8.12-.44,0-.77-.13-.99-.39Z"/>
        <path class="cls-6" d="m383.69,63.98h4.51v.67h-4.51v-.67Zm0,2.28h4.51v.67h-4.51v-.67Z"/>
        <path class="cls-6" d="m389.41,60.9h.91l-.12,2.59h-.67l-.12-2.59Zm1.63,0h.91l-.12,2.59h-.67l-.12-2.59Z"/>
        <path class="cls-6" d="m393.81,68.91c-.34-.34-.52-.83-.52-1.46v-4.15h.74v4.12c0,.4.12.72.36.95.24.24.58.35,1.01.35.38,0,.75-.13,1.11-.4.36-.26.64-.61.86-1.03v-4h.74v6h-.74v-1.01c-.19.3-.48.56-.88.79-.39.23-.81.34-1.26.34-.61,0-1.08-.17-1.43-.51Z"/>
        <path class="cls-6" d="m400.66,69.03c-.22-.26-.33-.6-.33-1.01v-4.09h-1.13v-.62h1.13v-1.8l.74.28v1.52h1.38v.62h-1.38v3.98c0,.31.07.54.2.68.14.14.34.21.6.21.1,0,.2-.01.29-.03.09-.02.18-.05.29-.08v.61c-.25.08-.52.12-.8.12-.44,0-.77-.13-.99-.39Z"/>
        <path class="cls-6" d="m404.24,63.92h-1.02v-.62h1.02v-1.31c0-.5.14-.89.41-1.16.28-.27.63-.41,1.06-.41.24,0,.47.03.7.1v.64c-.21-.07-.41-.11-.61-.11-.3,0-.51.09-.63.26-.12.18-.19.43-.19.76v1.24h1.33v.62h-1.33v5.38h-.74v-5.38Z"/>
        <path class="cls-6" d="m407.34,65.12h3.76v.67h-3.76v-.67Z"/>
        <path class="cls-6" d="m413.56,69.08c-.4-.23-.71-.54-.93-.94-.22-.4-.33-.84-.33-1.34,0-.46.12-.89.37-1.27.24-.38.55-.67.93-.88-.62-.49-.92-1.07-.92-1.74,0-.41.1-.77.31-1.1.21-.32.49-.58.83-.76.35-.18.72-.28,1.11-.28s.76.09,1.11.28c.35.18.63.44.83.76.21.32.31.69.31,1.1,0,.67-.31,1.25-.92,1.74.38.21.69.5.93.88.24.38.37.8.37,1.27,0,.5-.11.94-.33,1.34-.22.4-.53.71-.93.94-.4.23-.86.34-1.37.34s-.97-.11-1.37-.34Zm2.68-.88c.33-.32.5-.77.5-1.36s-.17-1.01-.5-1.34-.77-.5-1.31-.5-.97.17-1.31.5-.5.78-.5,1.33.17,1,.5,1.33.77.5,1.31.5.98-.16,1.31-.48Zm-.26-4.21c.28-.26.42-.62.42-1.07s-.14-.8-.42-1.07c-.28-.26-.63-.4-1.06-.4s-.78.13-1.06.4c-.28.26-.42.62-.42,1.07s.14.8.42,1.07.63.4,1.06.4.78-.13,1.06-.4Z"/>
        <path class="cls-6" d="m418.76,60.9h.91l-.12,2.59h-.67l-.12-2.59Zm1.63,0h.91l-.12,2.59h-.67l-.12-2.59Z"/>
        <path class="cls-6" d="m426.8,60.9h.8l-4.56,8.4h-.8l4.56-8.4Z"/>
        <path class="cls-6" d="m428.87,67.45l3.2-1.75-3.2-1.75v-.79l4.02,2.2v.7l-4.02,2.2v-.79Z"/>
        <path class="cls-6" d="m308.8,80.45v-.7l4.02-2.2v.79l-3.2,1.75,3.2,1.75v.79l-4.02-2.2Z"/>
        <path class="cls-6" d="m315.5,83.43c-.22-.26-.33-.6-.33-1.01v-4.09h-1.13v-.62h1.13v-1.8l.74.28v1.52h1.38v.62h-1.38v3.98c0,.31.07.54.2.68.14.14.34.21.6.21.1,0,.2-.01.29-.03.09-.02.18-.05.29-.08v.61c-.25.08-.52.12-.8.12-.44,0-.77-.13-.99-.39Z"/>
        <path class="cls-6" d="m318.5,76.47c-.12-.12-.17-.25-.17-.4,0-.16.06-.3.17-.41.12-.11.25-.17.4-.17.16,0,.3.06.41.17.11.11.17.25.17.41,0,.15-.06.29-.17.4-.11.12-.25.17-.41.17-.15,0-.29-.06-.4-.17Zm.03,1.23h.74v6h-.74v-6Z"/>
        <path class="cls-6" d="m321.83,83.43c-.22-.26-.33-.6-.33-1.01v-4.09h-1.13v-.62h1.13v-1.8l.74.28v1.52h1.38v.62h-1.38v3.98c0,.31.07.54.2.68.14.14.34.21.6.21.1,0,.2-.01.29-.03.09-.02.18-.05.29-.08v.61c-.25.08-.52.12-.8.12-.44,0-.77-.13-.99-.39Z"/>
        <path class="cls-6" d="m324.85,74.94h.74v8.76h-.74v-8.76Z"/>
        <path class="cls-6" d="m328.23,83.43c-.43-.26-.77-.63-1.01-1.1-.24-.47-.36-1.02-.36-1.63s.13-1.15.38-1.63.6-.84,1.03-1.1c.44-.26.91-.39,1.43-.39s.99.12,1.4.35.74.57.97,1.01c.24.44.35.96.35,1.55v.36h-4.75c0,.68.2,1.23.58,1.65s.87.63,1.47.63c.53,0,.93-.12,1.21-.37.28-.24.47-.57.59-.97h.74c-.16.63-.45,1.13-.88,1.49s-.99.54-1.67.54c-.56,0-1.06-.13-1.49-.39Zm3.46-3.21c0-.35-.1-.68-.26-.98s-.4-.54-.7-.71c-.3-.17-.64-.26-1.01-.26-.57,0-1.03.18-1.39.54-.36.36-.57.83-.64,1.4h4.01Z"/>
        <path class="cls-6" d="m333.77,81.85l3.2-1.75-3.2-1.75v-.79l4.02,2.2v.7l-4.02,2.2v-.79Z"/>
        <path class="cls-6" d="m339.57,83.14c-.42-.45-.62-1.05-.62-1.81h.78c0,.54.15.96.41,1.27.27.31.63.47,1.1.47,1,0,1.5-.59,1.5-1.78v-6h.82v5.95c0,.77-.2,1.39-.59,1.86-.39.47-.97.71-1.73.71-.7,0-1.25-.23-1.67-.68Z"/>
        <path class="cls-6" d="m345.39,83.33c-.33-.33-.49-.76-.49-1.3s.19-.99.58-1.3c.39-.32.88-.5,1.47-.56l1.86-.19v-.25c0-.97-.5-1.45-1.49-1.45-.38,0-.69.1-.94.31-.25.2-.39.48-.43.82h-.74c.05-.61.28-1.06.7-1.37.42-.3.9-.46,1.43-.46.7,0,1.24.19,1.63.56.39.38.58.9.58,1.56v2.77c0,.2.04.35.13.46.09.11.22.16.4.16.1,0,.21-.02.31-.05v.6c-.16.08-.35.12-.58.12-.3,0-.53-.09-.71-.28s-.28-.42-.3-.69c-.62.68-1.31,1.02-2.08,1.02-.57,0-1.02-.16-1.34-.49Zm3.42-1.4v-1.31l-1.64.17c-.47.05-.84.18-1.12.39-.27.21-.41.5-.41.86,0,.32.11.58.32.79.22.2.5.31.86.31.76,0,1.42-.4,1.98-1.2Z"/>
        <path class="cls-6" d="m352.32,83.43c-.44-.26-.79-.63-1.04-1.1-.25-.47-.38-1.02-.38-1.63s.13-1.16.38-1.63.6-.84,1.04-1.1c.44-.26.95-.39,1.52-.39.78,0,1.41.19,1.88.57s.76.92.87,1.63h-.71c-.11-.48-.34-.85-.68-1.11-.34-.26-.79-.39-1.34-.39-.42,0-.8.1-1.14.31-.34.2-.6.49-.79.86-.19.37-.29.79-.29,1.26s.1.89.29,1.26c.19.37.46.65.79.86.34.2.72.31,1.14.31.58,0,1.02-.13,1.34-.38.32-.25.54-.63.68-1.12h.71c-.08.66-.37,1.19-.86,1.59s-1.12.61-1.88.61c-.57,0-1.07-.13-1.52-.39Z"/>
        <path class="cls-6" d="m358.99,83.42c-.46-.27-.81-.64-1.06-1.12s-.38-1.01-.38-1.6.13-1.13.38-1.6c.25-.48.61-.85,1.06-1.12s.98-.4,1.57-.4,1.12.13,1.57.4c.46.27.81.64,1.06,1.12.25.48.38,1.01.38,1.6s-.13,1.13-.38,1.6-.61.85-1.06,1.12c-.46.27-.98.4-1.57.4s-1.12-.13-1.57-.4Zm2.7-.57c.34-.18.62-.46.83-.83.21-.37.31-.81.31-1.32s-.1-.95-.31-1.32c-.21-.37-.48-.64-.83-.83s-.72-.28-1.13-.28-.78.09-1.13.28c-.34.18-.62.46-.83.83-.21.37-.31.81-.31,1.32s.1.95.31,1.32c.21.37.48.64.83.83.34.18.72.28,1.13.28s.78-.09,1.13-.28Z"/>
        <path class="cls-6" d="m366.44,83.57c-.35-.17-.64-.38-.85-.64v.77h-.74v-8.76h.74v3.66c.25-.32.55-.57.92-.75.36-.18.76-.27,1.18-.27.5,0,.95.12,1.34.37.39.24.69.6.9,1.07.21.47.32,1.03.32,1.69s-.11,1.21-.34,1.68c-.22.47-.53.83-.92,1.07-.39.24-.84.37-1.33.37-.46,0-.86-.08-1.21-.25Zm2.54-1.07c.35-.42.52-1.02.52-1.8s-.18-1.36-.55-1.79c-.36-.42-.85-.64-1.47-.64-.37,0-.7.09-.98.28s-.51.42-.67.71c-.16.29-.24.58-.24.87v1.06c0,.33.07.64.22.94.14.3.36.54.64.72.28.18.63.28,1.04.28.65,0,1.15-.21,1.49-.62Z"/>
        <path class="cls-6" d="m375.81,76.04h-2.14v-.74h5.09v.74h-2.14v7.66h-.82v-7.66Z"/>
        <path class="cls-6" d="m379.15,77.7h.74v.9c.17-.28.41-.52.71-.72.31-.2.64-.3.99-.3.23,0,.4.03.52.1l-.13.64c-.1-.02-.24-.04-.42-.04-.33,0-.65.12-.96.37-.31.24-.55.56-.71.94v4.12h-.74v-6Z"/>
        <path class="cls-6" d="m383.98,83.43c-.43-.26-.77-.63-1.01-1.1-.24-.47-.36-1.02-.36-1.63s.13-1.15.38-1.63.6-.84,1.03-1.1c.44-.26.91-.39,1.43-.39s.99.12,1.4.35.74.57.97,1.01c.24.44.35.96.35,1.55v.36h-4.75c0,.68.2,1.23.58,1.65s.87.63,1.47.63c.53,0,.93-.12,1.21-.37.28-.24.47-.57.59-.97h.74c-.16.63-.45,1.13-.88,1.49s-.99.54-1.67.54c-.56,0-1.06-.13-1.49-.39Zm3.46-3.21c0-.35-.1-.68-.26-.98s-.4-.54-.7-.71c-.3-.17-.64-.26-1.01-.26-.57,0-1.03.18-1.39.54-.36.36-.57.83-.64,1.4h4.01Z"/>
        <path class="cls-6" d="m388.57,77.7h.8l1.79,4.66.18.7.18-.7,1.79-4.66h.8l-2.35,6h-.84l-2.35-6Z"/>
        <path class="cls-6" d="m395.15,76.47c-.12-.12-.17-.25-.17-.4,0-.16.06-.3.17-.41.12-.11.25-.17.4-.17.16,0,.3.06.41.17.11.11.17.25.17.41,0,.15-.06.29-.17.4-.11.12-.25.17-.41.17-.15,0-.29-.06-.4-.17Zm.03,1.23h.74v6h-.74v-6Z"/>
        <path class="cls-6" d="m397.52,77.7h.74v1.01c.19-.3.48-.56.88-.79.39-.23.81-.34,1.26-.34.61,0,1.08.17,1.43.5.34.33.52.8.52,1.4v4.22h-.74v-4.12c0-.4-.12-.72-.36-.95-.24-.24-.58-.35-1.01-.35-.37,0-.73.13-1.08.39-.35.26-.65.61-.89,1.04v4h-.74v-6Z"/>
        <path class="cls-6" d="m405.01,83.42c-.46-.27-.81-.64-1.06-1.12s-.38-1.01-.38-1.6.13-1.13.38-1.6c.25-.48.61-.85,1.06-1.12s.98-.4,1.57-.4,1.12.13,1.57.4c.46.27.81.64,1.06,1.12.25.48.38,1.01.38,1.6s-.13,1.13-.38,1.6-.61.85-1.06,1.12c-.46.27-.98.4-1.57.4s-1.12-.13-1.57-.4Zm2.7-.57c.34-.18.62-.46.83-.83.21-.37.31-.81.31-1.32s-.1-.95-.31-1.32c-.21-.37-.48-.64-.83-.83s-.72-.28-1.13-.28-.78.09-1.13.28c-.34.18-.62.46-.83.83-.21.37-.31.81-.31,1.32s.1.95.31,1.32c.21.37.48.64.83.83.34.18.72.28,1.13.28s.78-.09,1.13-.28Z"/>
        <path class="cls-6" d="m413.43,75.3h.67v9.84h-.67v-9.84Z"/>
        <path class="cls-6" d="m418.3,75.3h2.76c.58,0,1.09.11,1.53.34.44.22.77.54,1.01.95.24.41.35.88.35,1.4s-.12,1-.35,1.4c-.24.41-.57.72-1.01.95-.44.22-.95.34-1.53.34h-1.94v3.02h-.82v-8.4Zm2.74,4.63c.65,0,1.16-.16,1.54-.49.38-.32.56-.81.56-1.46s-.19-1.13-.56-1.46c-.38-.32-.89-.49-1.54-.49h-1.92v3.89h1.92Z"/>
        <path class="cls-6" d="m426.06,83.42c-.46-.27-.81-.64-1.06-1.12s-.38-1.01-.38-1.6.13-1.13.38-1.6c.25-.48.61-.85,1.06-1.12s.98-.4,1.57-.4,1.12.13,1.57.4c.46.27.81.64,1.06,1.12.25.48.38,1.01.38,1.6s-.13,1.13-.38,1.6-.61.85-1.06,1.12c-.46.27-.98.4-1.57.4s-1.12-.13-1.57-.4Zm2.7-.57c.34-.18.62-.46.83-.83.21-.37.31-.81.31-1.32s-.1-.95-.31-1.32c-.21-.37-.48-.64-.83-.83s-.72-.28-1.13-.28-.78.09-1.13.28c-.34.18-.62.46-.83.83-.21.37-.31.81-.31,1.32s.1.95.31,1.32c.21.37.48.64.83.83.34.18.72.28,1.13.28s.78-.09,1.13-.28Z"/>
        <path class="cls-6" d="m431.92,77.7h.74v.9c.17-.28.41-.52.71-.72.31-.2.64-.3.99-.3.23,0,.4.03.52.1l-.13.64c-.1-.02-.24-.04-.42-.04-.33,0-.65.12-.96.37-.31.24-.55.56-.71.94v4.12h-.74v-6Z"/>
        <path class="cls-6" d="m436.94,83.43c-.22-.26-.33-.6-.33-1.01v-4.09h-1.13v-.62h1.13v-1.8l.74.28v1.52h1.38v.62h-1.38v3.98c0,.31.07.54.2.68.14.14.34.21.6.21.1,0,.2-.01.29-.03.09-.02.18-.05.29-.08v.61c-.25.08-.52.12-.8.12-.44,0-.77-.13-.99-.39Z"/>
        <path class="cls-6" d="m440.53,78.32h-1.02v-.62h1.02v-1.31c0-.5.14-.89.41-1.16.28-.27.63-.41,1.06-.41.24,0,.47.03.7.1v.64c-.21-.07-.41-.11-.61-.11-.3,0-.51.09-.63.26-.12.18-.19.43-.19.76v1.24h1.33v.62h-1.33v5.38h-.74v-5.38Z"/>
        <path class="cls-6" d="m444.57,83.42c-.46-.27-.81-.64-1.06-1.12s-.38-1.01-.38-1.6.13-1.13.38-1.6c.25-.48.61-.85,1.06-1.12s.98-.4,1.57-.4,1.12.13,1.57.4c.46.27.81.64,1.06,1.12.25.48.38,1.01.38,1.6s-.13,1.13-.38,1.6-.61.85-1.06,1.12c-.46.27-.98.4-1.57.4s-1.12-.13-1.57-.4Zm2.7-.57c.34-.18.62-.46.83-.83.21-.37.31-.81.31-1.32s-.1-.95-.31-1.32c-.21-.37-.48-.64-.83-.83s-.72-.28-1.13-.28-.78.09-1.13.28c-.34.18-.62.46-.83.83-.21.37-.31.81-.31,1.32s.1.95.31,1.32c.21.37.48.64.83.83.34.18.72.28,1.13.28s.78-.09,1.13-.28Z"/>
        <path class="cls-6" d="m450.42,74.94h.74v8.76h-.74v-8.76Z"/>
        <path class="cls-6" d="m452.73,76.47c-.12-.12-.17-.25-.17-.4,0-.16.06-.3.17-.41.12-.11.25-.17.4-.17.16,0,.3.06.41.17.11.11.17.25.17.41,0,.15-.06.29-.17.4-.11.12-.25.17-.41.17-.15,0-.29-.06-.4-.17Zm.03,1.23h.74v6h-.74v-6Z"/>
        <path class="cls-6" d="m456.23,83.42c-.46-.27-.81-.64-1.06-1.12s-.38-1.01-.38-1.6.13-1.13.38-1.6c.25-.48.61-.85,1.06-1.12s.98-.4,1.57-.4,1.12.13,1.57.4c.46.27.81.64,1.06,1.12.25.48.38,1.01.38,1.6s-.13,1.13-.38,1.6-.61.85-1.06,1.12c-.46.27-.98.4-1.57.4s-1.12-.13-1.57-.4Zm2.7-.57c.34-.18.62-.46.83-.83.21-.37.31-.81.31-1.32s-.1-.95-.31-1.32c-.21-.37-.48-.64-.83-.83s-.72-.28-1.13-.28-.78.09-1.13.28c-.34.18-.62.46-.83.83-.21.37-.31.81-.31,1.32s.1.95.31,1.32c.21.37.48.64.83.83.34.18.72.28,1.13.28s.78-.09,1.13-.28Z"/>
        <path class="cls-6" d="m464.01,75.3h.86l1.88,6.73.18.89.18-.89,1.92-6.73h.82l1.92,6.73.18.89.18-.89,1.88-6.73h.86l-2.42,8.4h-.98l-2.03-7.24-2.03,7.24h-.98l-2.42-8.4Z"/>
        <path class="cls-6" d="m476.49,83.43c-.43-.26-.77-.63-1.01-1.1-.24-.47-.36-1.02-.36-1.63s.13-1.15.38-1.63.6-.84,1.03-1.1c.44-.26.91-.39,1.43-.39s.99.12,1.4.35.74.57.97,1.01c.24.44.35.96.35,1.55v.36h-4.75c0,.68.2,1.23.58,1.65s.87.63,1.47.63c.53,0,.93-.12,1.21-.37.28-.24.47-.57.59-.97h.74c-.16.63-.45,1.13-.88,1.49s-.99.54-1.67.54c-.56,0-1.06-.13-1.49-.39Zm3.46-3.21c0-.35-.1-.68-.26-.98s-.4-.54-.7-.71c-.3-.17-.64-.26-1.01-.26-.57,0-1.03.18-1.39.54-.36.36-.57.83-.64,1.4h4.01Z"/>
        <path class="cls-6" d="m483.48,83.57c-.35-.17-.64-.38-.85-.64v.77h-.74v-8.76h.74v3.66c.25-.32.55-.57.92-.75.36-.18.76-.27,1.18-.27.5,0,.95.12,1.34.37.39.24.69.6.9,1.07.21.47.32,1.03.32,1.69s-.11,1.21-.34,1.68c-.22.47-.53.83-.92,1.07-.39.24-.84.37-1.33.37-.46,0-.86-.08-1.21-.25Zm2.54-1.07c.35-.42.52-1.02.52-1.8s-.18-1.36-.55-1.79c-.36-.42-.85-.64-1.47-.64-.37,0-.7.09-.98.28s-.51.42-.67.71c-.16.29-.24.58-.24.87v1.06c0,.33.07.64.22.94.14.3.36.54.64.72.28.18.63.28,1.04.28.65,0,1.15-.21,1.49-.62Z"/>
        <path class="cls-6" d="m488.87,83.29c-.42-.35-.66-.84-.72-1.46h.74c.07.45.24.78.51.98.27.21.65.31,1.13.31.37,0,.69-.1.97-.29.28-.2.42-.47.42-.82,0-.31-.13-.56-.4-.74-.26-.18-.72-.34-1.36-.47-.61-.13-1.06-.34-1.36-.62-.3-.29-.44-.63-.44-1.03,0-.28.08-.54.23-.77.16-.24.38-.43.67-.57s.63-.22,1.01-.22c.58,0,1.06.16,1.45.47.39.31.6.75.64,1.31h-.74c-.04-.34-.18-.6-.41-.8-.24-.2-.55-.3-.93-.3s-.66.08-.86.23c-.21.15-.31.36-.31.62s.11.48.34.65c.22.17.64.33,1.25.46.69.16,1.19.37,1.5.64.31.27.47.63.47,1.1,0,.34-.09.65-.27.93-.18.28-.43.51-.76.68s-.7.25-1.13.25c-.68,0-1.23-.18-1.64-.53Z"/>
        <path class="cls-6" d="m493.91,76.47c-.12-.12-.17-.25-.17-.4,0-.16.06-.3.17-.41.12-.11.25-.17.4-.17.16,0,.3.06.41.17.11.11.17.25.17.41,0,.15-.06.29-.17.4-.11.12-.25.17-.41.17-.15,0-.29-.06-.4-.17Zm.03,1.23h.74v6h-.74v-6Z"/>
        <path class="cls-6" d="m497.23,83.43c-.22-.26-.33-.6-.33-1.01v-4.09h-1.13v-.62h1.13v-1.8l.74.28v1.52h1.38v.62h-1.38v3.98c0,.31.07.54.2.68.14.14.34.21.6.21.1,0,.2-.01.29-.03.09-.02.18-.05.29-.08v.61c-.25.08-.52.12-.8.12-.44,0-.77-.13-.99-.39Z"/>
        <path class="cls-6" d="m501.16,83.43c-.43-.26-.77-.63-1.01-1.1-.24-.47-.36-1.02-.36-1.63s.13-1.15.38-1.63.6-.84,1.03-1.1c.44-.26.91-.39,1.43-.39s.99.12,1.4.35.74.57.97,1.01c.24.44.35.96.35,1.55v.36h-4.75c0,.68.2,1.23.58,1.65s.87.63,1.47.63c.53,0,.93-.12,1.21-.37.28-.24.47-.57.59-.97h.74c-.16.63-.45,1.13-.88,1.49s-.99.54-1.67.54c-.56,0-1.06-.13-1.49-.39Zm3.46-3.21c0-.35-.1-.68-.26-.98s-.4-.54-.7-.71c-.3-.17-.64-.26-1.01-.26-.57,0-1.03.18-1.39.54-.36.36-.57.83-.64,1.4h4.01Z"/>
        <path class="cls-6" d="m506.54,80.45v-.7l4.02-2.2v.79l-3.2,1.75,3.2,1.75v.79l-4.02-2.2Z"/>
        <path class="cls-6" d="m516.39,75.3h.8l-4.56,8.4h-.8l4.56-8.4Z"/>
        <path class="cls-6" d="m519.27,83.43c-.22-.26-.33-.6-.33-1.01v-4.09h-1.13v-.62h1.13v-1.8l.74.28v1.52h1.38v.62h-1.38v3.98c0,.31.07.54.2.68.14.14.34.21.6.21.1,0,.2-.01.29-.03.09-.02.18-.05.29-.08v.61c-.25.08-.52.12-.8.12-.44,0-.77-.13-.99-.39Z"/>
        <path class="cls-6" d="m522.27,76.47c-.12-.12-.17-.25-.17-.4,0-.16.06-.3.17-.41.12-.11.25-.17.4-.17.16,0,.3.06.41.17.11.11.17.25.17.41,0,.15-.06.29-.17.4-.11.12-.25.17-.41.17-.15,0-.29-.06-.4-.17Zm.03,1.23h.74v6h-.74v-6Z"/>
        <path class="cls-6" d="m525.6,83.43c-.22-.26-.33-.6-.33-1.01v-4.09h-1.13v-.62h1.13v-1.8l.74.28v1.52h1.38v.62h-1.38v3.98c0,.31.07.54.2.68.14.14.34.21.6.21.1,0,.2-.01.29-.03.09-.02.18-.05.29-.08v.61c-.25.08-.52.12-.8.12-.44,0-.77-.13-.99-.39Z"/>
        <path class="cls-6" d="m528.62,74.94h.74v8.76h-.74v-8.76Z"/>
        <path class="cls-6" d="m532,83.43c-.43-.26-.77-.63-1.01-1.1-.24-.47-.36-1.02-.36-1.63s.13-1.15.38-1.63.6-.84,1.03-1.1c.44-.26.91-.39,1.43-.39s.99.12,1.4.35.74.57.97,1.01c.24.44.35.96.35,1.55v.36h-4.75c0,.68.2,1.23.58,1.65s.87.63,1.47.63c.53,0,.93-.12,1.21-.37.28-.24.47-.57.59-.97h.74c-.16.63-.45,1.13-.88,1.49s-.99.54-1.67.54c-.56,0-1.06-.13-1.49-.39Zm3.46-3.21c0-.35-.1-.68-.26-.98s-.4-.54-.7-.71c-.3-.17-.64-.26-1.01-.26-.57,0-1.03.18-1.39.54-.36.36-.57.83-.64,1.4h4.01Z"/>
        <path class="cls-6" d="m537.54,81.85l3.2-1.75-3.2-1.75v-.79l4.02,2.2v.7l-4.02,2.2v-.79Z"/>
        <path class="cls-6" d="m308.8,94.85v-.7l4.02-2.2v.79l-3.2,1.75,3.2,1.75v.79l-4.02-2.2Z"/>
        <path class="cls-6" d="m314.55,89.34h.74v8.76h-.74v-8.76Z"/>
        <path class="cls-6" d="m316.86,90.87c-.12-.12-.17-.25-.17-.4,0-.16.06-.3.17-.41.12-.11.25-.17.4-.17.16,0,.3.06.41.17.11.11.17.25.17.41,0,.15-.06.29-.17.4-.11.12-.25.17-.41.17-.15,0-.29-.06-.4-.17Zm.03,1.23h.74v6h-.74v-6Z"/>
        <path class="cls-6" d="m319.23,92.1h.74v1.01c.19-.3.48-.56.88-.79.39-.23.81-.34,1.26-.34.61,0,1.08.17,1.43.5.34.33.52.8.52,1.4v4.22h-.74v-4.12c0-.4-.12-.72-.36-.95-.24-.24-.58-.35-1.01-.35-.37,0-.73.13-1.08.39-.35.26-.65.61-.89,1.04v4h-.74v-6Z"/>
        <path class="cls-6" d="m325.59,89.34h.74v5.28l2.48-2.52h.96l-2.66,2.7,2.92,3.3h-.97l-2.72-3.05v3.05h-.74v-8.76Z"/>
        <path class="cls-6" d="m333.58,92.1h.74v.9c.17-.28.41-.52.71-.72.31-.2.64-.3.99-.3.23,0,.4.03.52.1l-.13.64c-.1-.02-.24-.04-.42-.04-.33,0-.65.12-.96.37-.31.24-.55.56-.71.94v4.12h-.74v-6Z"/>
        <path class="cls-6" d="m338.42,97.83c-.43-.26-.77-.63-1.01-1.1-.24-.47-.36-1.02-.36-1.63s.13-1.15.38-1.63.6-.84,1.03-1.1c.44-.26.91-.39,1.43-.39s.99.12,1.4.35.74.57.97,1.01c.24.44.35.96.35,1.55v.36h-4.75c0,.68.2,1.23.58,1.65s.87.63,1.47.63c.53,0,.93-.12,1.21-.37.28-.24.47-.57.59-.97h.74c-.16.63-.45,1.13-.88,1.49s-.99.54-1.67.54c-.56,0-1.06-.13-1.49-.39Zm3.46-3.21c0-.35-.1-.68-.26-.98s-.4-.54-.7-.71c-.3-.17-.64-.26-1.01-.26-.57,0-1.03.18-1.39.54-.36.36-.57.83-.64,1.4h4.01Z"/>
        <path class="cls-6" d="m343.82,89.34h.74v8.76h-.74v-8.76Z"/>
        <path class="cls-6" d="m345.95,92.78h4.51v.67h-4.51v-.67Zm0,2.28h4.51v.67h-4.51v-.67Z"/>
        <path class="cls-6" d="m351.67,89.7h.91l-.12,2.59h-.67l-.12-2.59Zm1.63,0h.91l-.12,2.59h-.67l-.12-2.59Z"/>
        <path class="cls-6" d="m355.58,90.87c-.12-.12-.17-.25-.17-.4,0-.16.06-.3.17-.41.12-.11.25-.17.4-.17.16,0,.3.06.41.17.11.11.17.25.17.41,0,.15-.06.29-.17.4-.11.12-.25.17-.41.17-.15,0-.29-.06-.4-.17Zm.03,1.23h.74v6h-.74v-6Z"/>
        <path class="cls-6" d="m359.06,97.83c-.44-.26-.79-.63-1.04-1.1-.25-.47-.38-1.02-.38-1.63s.13-1.16.38-1.63.6-.84,1.04-1.1c.44-.26.95-.39,1.52-.39.78,0,1.41.19,1.88.57s.76.92.87,1.63h-.71c-.11-.48-.34-.85-.68-1.11-.34-.26-.79-.39-1.34-.39-.42,0-.8.1-1.14.31-.34.2-.6.49-.79.86-.19.37-.29.79-.29,1.26s.1.89.29,1.26c.19.37.46.65.79.86.34.2.72.31,1.14.31.58,0,1.02-.13,1.34-.38.32-.25.54-.63.68-1.12h.71c-.08.66-.37,1.19-.86,1.59s-1.12.61-1.88.61c-.57,0-1.07-.13-1.52-.39Z"/>
        <path class="cls-6" d="m365.73,97.82c-.46-.27-.81-.64-1.06-1.12s-.38-1.01-.38-1.6.13-1.13.38-1.6c.25-.48.61-.85,1.06-1.12s.98-.4,1.57-.4,1.12.13,1.57.4c.46.27.81.64,1.06,1.12.25.48.38,1.01.38,1.6s-.13,1.13-.38,1.6-.61.85-1.06,1.12c-.46.27-.98.4-1.57.4s-1.12-.13-1.57-.4Zm2.7-.57c.34-.18.62-.46.83-.83.21-.37.31-.81.31-1.32s-.1-.95-.31-1.32c-.21-.37-.48-.64-.83-.83s-.72-.28-1.13-.28-.78.09-1.13.28c-.34.18-.62.46-.83.83-.21.37-.31.81-.31,1.32s.1.95.31,1.32c.21.37.48.64.83.83.34.18.72.28,1.13.28s.78-.09,1.13-.28Z"/>
        <path class="cls-6" d="m371.59,92.1h.74v1.01c.19-.3.48-.56.88-.79.39-.23.81-.34,1.26-.34.61,0,1.08.17,1.43.5.34.33.52.8.52,1.4v4.22h-.74v-4.12c0-.4-.12-.72-.36-.95-.24-.24-.58-.35-1.01-.35-.37,0-.73.13-1.08.39-.35.26-.65.61-.89,1.04v4h-.74v-6Z"/>
        <path class="cls-6" d="m377.39,89.7h.91l-.12,2.59h-.67l-.12-2.59Zm1.63,0h.91l-.12,2.59h-.67l-.12-2.59Z"/>
        <path class="cls-6" d="m384.8,97.83c-.22-.26-.33-.6-.33-1.01v-4.09h-1.13v-.62h1.13v-1.8l.74.28v1.52h1.38v.62h-1.38v3.98c0,.31.07.54.2.68.14.14.34.21.6.21.1,0,.2-.01.29-.03.09-.02.18-.05.29-.08v.61c-.25.08-.52.12-.8.12-.44,0-.77-.13-.99-.39Z"/>
        <path class="cls-6" d="m389.63,97.51l-2.34-5.41h.86l1.67,3.91.13.68,1.81-4.6h.82l-3.34,8.4h-.79l1.18-2.99Z"/>
        <path class="cls-6" d="m393.64,92.1h.74v.85c.22-.28.5-.51.85-.7.35-.18.75-.28,1.22-.28.5,0,.94.12,1.33.37.39.24.7.6.92,1.07.22.47.34,1.03.34,1.68s-.11,1.21-.34,1.68c-.23.47-.54.83-.94,1.07-.4.24-.85.37-1.36.37-.42,0-.81-.08-1.15-.25-.34-.16-.63-.4-.86-.71v3.24h-.74v-8.4Zm4.12,4.79c.36-.42.54-1.02.54-1.79s-.17-1.38-.52-1.8-.84-.62-1.48-.62c-.41,0-.76.09-1.04.28s-.51.42-.65.72c-.15.3-.22.61-.22.94v1.06c0,.29.08.58.25.86.16.29.39.53.68.71s.62.28.99.28c.61,0,1.09-.21,1.45-.63Z"/>
        <path class="cls-6" d="m401.37,97.83c-.43-.26-.77-.63-1.01-1.1-.24-.47-.36-1.02-.36-1.63s.13-1.15.38-1.63.6-.84,1.03-1.1c.44-.26.91-.39,1.43-.39s.99.12,1.4.35.74.57.97,1.01c.24.44.35.96.35,1.55v.36h-4.75c0,.68.2,1.23.58,1.65s.87.63,1.47.63c.53,0,.93-.12,1.21-.37.28-.24.47-.57.59-.97h.74c-.16.63-.45,1.13-.88,1.49s-.99.54-1.67.54c-.56,0-1.06-.13-1.49-.39Zm3.46-3.21c0-.35-.1-.68-.26-.98s-.4-.54-.7-.71c-.3-.17-.64-.26-1.01-.26-.57,0-1.03.18-1.39.54-.36.36-.57.83-.64,1.4h4.01Z"/>
        <path class="cls-6" d="m406.58,92.78h4.51v.67h-4.51v-.67Zm0,2.28h4.51v.67h-4.51v-.67Z"/>
        <path class="cls-6" d="m412.29,89.7h.91l-.12,2.59h-.67l-.12-2.59Zm1.63,0h.91l-.12,2.59h-.67l-.12-2.59Z"/>
        <path class="cls-6" d="m416.21,90.87c-.12-.12-.17-.25-.17-.4,0-.16.06-.3.17-.41.12-.11.25-.17.4-.17.16,0,.3.06.41.17.11.11.17.25.17.41,0,.15-.06.29-.17.4-.11.12-.25.17-.41.17-.15,0-.29-.06-.4-.17Zm.03,1.23h.74v6h-.74v-6Z"/>
        <path class="cls-6" d="m418.59,92.1h.74v.9c.18-.28.45-.52.79-.72.34-.2.7-.3,1.07-.3.77,0,1.29.32,1.56.97.24-.3.53-.54.86-.71.34-.17.7-.26,1.1-.26.54,0,.95.15,1.25.46.3.31.44.74.44,1.29v4.37h-.74v-4.19c0-.82-.38-1.24-1.13-1.24-.31,0-.62.1-.93.31-.31.21-.55.47-.74.78v4.33h-.74v-4.14c0-.41-.1-.72-.29-.95s-.46-.34-.79-.34c-.35,0-.68.12-.98.37-.3.24-.55.53-.74.87v4.19h-.76v-6Z"/>
        <path class="cls-6" d="m428.15,97.73c-.33-.33-.49-.76-.49-1.3s.19-.99.58-1.3c.39-.32.88-.5,1.47-.56l1.86-.19v-.25c0-.97-.5-1.45-1.49-1.45-.38,0-.69.1-.94.31-.25.2-.39.48-.43.82h-.74c.05-.61.28-1.06.7-1.37.42-.3.9-.46,1.43-.46.7,0,1.24.19,1.63.56.39.38.58.9.58,1.56v2.77c0,.2.04.35.13.46.09.11.22.16.4.16.1,0,.21-.02.31-.05v.6c-.16.08-.35.12-.58.12-.3,0-.53-.09-.71-.28s-.28-.42-.3-.69c-.62.68-1.31,1.02-2.08,1.02-.57,0-1.02-.16-1.34-.49Zm3.42-1.4v-1.31l-1.64.17c-.47.05-.84.18-1.12.39-.27.21-.41.5-.41.86,0,.32.11.58.32.79.22.2.5.31.86.31.76,0,1.42-.4,1.98-1.2Z"/>
        <path class="cls-6" d="m434.9,100.13c-.44-.33-.7-.76-.77-1.31h.86c.07.31.23.57.47.79s.59.32,1.06.32c.7,0,1.21-.17,1.51-.52.3-.35.46-.81.46-1.4v-.84c-.24.29-.54.52-.89.68-.36.17-.76.25-1.21.25-.53,0-1-.12-1.4-.37-.41-.24-.73-.6-.95-1.06-.23-.46-.34-1.01-.34-1.63s.12-1.17.36-1.63.57-.82.99-1.06.89-.37,1.42-.37c.46,0,.84.08,1.15.23.31.16.6.39.88.69v-.8h.74v5.96c0,.49-.1.93-.31,1.31s-.51.69-.91.91c-.4.22-.89.33-1.46.33-.66,0-1.21-.16-1.65-.49Zm3.05-3.25c.36-.35.53-.82.53-1.39v-.86c0-.37-.09-.7-.26-1s-.41-.53-.71-.7-.63-.25-.98-.25c-.61,0-1.11.2-1.51.61-.4.41-.59.99-.59,1.75s.2,1.34.59,1.75c.4.41.9.61,1.51.61s1.07-.18,1.42-.53Z"/>
        <path class="cls-6" d="m441.87,97.83c-.43-.26-.77-.63-1.01-1.1-.24-.47-.36-1.02-.36-1.63s.13-1.15.38-1.63.6-.84,1.03-1.1c.44-.26.91-.39,1.43-.39s.99.12,1.4.35.74.57.97,1.01c.24.44.35.96.35,1.55v.36h-4.75c0,.68.2,1.23.58,1.65s.87.63,1.47.63c.53,0,.93-.12,1.21-.37.28-.24.47-.57.59-.97h.74c-.16.63-.45,1.13-.88,1.49s-.99.54-1.67.54c-.56,0-1.06-.13-1.49-.39Zm3.46-3.21c0-.35-.1-.68-.26-.98s-.4-.54-.7-.71c-.3-.17-.64-.26-1.01-.26-.57,0-1.03.18-1.39.54-.36.36-.57.83-.64,1.4h4.01Z"/>
        <path class="cls-6" d="m451.37,89.7h.8l-4.56,8.4h-.8l4.56-8.4Z"/>
        <path class="cls-6" d="m453.14,97.69c-.42-.35-.66-.84-.72-1.46h.74c.07.45.24.78.51.98.27.21.65.31,1.13.31.37,0,.69-.1.97-.29.28-.2.42-.47.42-.82,0-.31-.13-.56-.4-.74-.26-.18-.72-.34-1.36-.47-.61-.13-1.06-.34-1.36-.62-.3-.29-.44-.63-.44-1.03,0-.28.08-.54.23-.77.16-.24.38-.43.67-.57s.63-.22,1.01-.22c.58,0,1.06.16,1.45.47.39.31.6.75.64,1.31h-.74c-.04-.34-.18-.6-.41-.8-.24-.2-.55-.3-.93-.3s-.66.08-.86.23c-.21.15-.31.36-.31.62s.11.48.34.65c.22.17.64.33,1.25.46.69.16,1.19.37,1.5.64.31.27.47.63.47,1.1,0,.34-.09.65-.27.93-.18.28-.43.51-.76.68s-.7.25-1.13.25c-.68,0-1.23-.18-1.64-.53Z"/>
        <path class="cls-6" d="m457.4,92.1h.8l1.79,4.66.18.7.18-.7,1.79-4.66h.8l-2.35,6h-.84l-2.35-6Z"/>
        <path class="cls-6" d="m464.62,100.13c-.44-.33-.7-.76-.77-1.31h.86c.07.31.23.57.47.79s.59.32,1.06.32c.7,0,1.21-.17,1.51-.52.3-.35.46-.81.46-1.4v-.84c-.24.29-.54.52-.89.68-.36.17-.76.25-1.21.25-.53,0-1-.12-1.4-.37-.41-.24-.73-.6-.95-1.06-.23-.46-.34-1.01-.34-1.63s.12-1.17.36-1.63.57-.82.99-1.06.89-.37,1.42-.37c.46,0,.84.08,1.15.23.31.16.6.39.88.69v-.8h.74v5.96c0,.49-.1.93-.31,1.31s-.51.69-.91.91c-.4.22-.89.33-1.46.33-.66,0-1.21-.16-1.65-.49Zm3.05-3.25c.36-.35.53-.82.53-1.39v-.86c0-.37-.09-.7-.26-1s-.41-.53-.71-.7-.63-.25-.98-.25c-.61,0-1.11.2-1.51.61-.4.41-.59.99-.59,1.75s.2,1.34.59,1.75c.4.41.9.61,1.51.61s1.07-.18,1.42-.53Z"/>
        <path class="cls-6" d="m469.97,89.7h.91l-.12,2.59h-.67l-.12-2.59Zm1.63,0h.91l-.12,2.59h-.67l-.12-2.59Z"/>
        <path class="cls-6" d="m476.43,89.34h.74v3.74c.25-.31.57-.57.95-.79.39-.21.83-.32,1.33-.32.6,0,1.07.18,1.42.55.35.36.52.84.52,1.43v4.14h-.74v-4.19c0-.39-.13-.7-.38-.91-.26-.22-.6-.32-1.02-.32-.39,0-.77.12-1.15.36-.37.24-.68.55-.93.92v4.14h-.74v-8.76Z"/>
        <path class="cls-6" d="m482.93,92.1h.74v.9c.17-.28.41-.52.71-.72.31-.2.64-.3.99-.3.23,0,.4.03.52.1l-.13.64c-.1-.02-.24-.04-.42-.04-.33,0-.65.12-.96.37-.31.24-.55.56-.71.94v4.12h-.74v-6Z"/>
        <path class="cls-6" d="m487.77,97.83c-.43-.26-.77-.63-1.01-1.1-.24-.47-.36-1.02-.36-1.63s.13-1.15.38-1.63.6-.84,1.03-1.1c.44-.26.91-.39,1.43-.39s.99.12,1.4.35.74.57.97,1.01c.24.44.35.96.35,1.55v.36h-4.75c0,.68.2,1.23.58,1.65s.87.63,1.47.63c.53,0,.93-.12,1.21-.37.28-.24.47-.57.59-.97h.74c-.16.63-.45,1.13-.88,1.49s-.99.54-1.67.54c-.56,0-1.06-.13-1.49-.39Zm3.46-3.21c0-.35-.1-.68-.26-.98s-.4-.54-.7-.71c-.3-.17-.64-.26-1.01-.26-.57,0-1.03.18-1.39.54-.36.36-.57.83-.64,1.4h4.01Z"/>
        <path class="cls-6" d="m493.59,92.72h-1.02v-.62h1.02v-1.31c0-.5.14-.89.41-1.16.28-.27.63-.41,1.06-.41.24,0,.47.03.7.1v.64c-.21-.07-.41-.11-.61-.11-.3,0-.51.09-.63.26-.12.18-.19.43-.19.76v1.24h1.33v.62h-1.33v5.38h-.74v-5.38Z"/>
        <path class="cls-6" d="m496.7,92.78h4.51v.67h-4.51v-.67Zm0,2.28h4.51v.67h-4.51v-.67Z"/>
        <path class="cls-6" d="m502.41,89.7h.91l-.12,2.59h-.67l-.12-2.59Zm1.63,0h.91l-.12,2.59h-.67l-.12-2.59Z"/>
        <path class="cls-6" d="m506.34,89.34h.74v8.76h-.74v-8.76Z"/>
        <path class="cls-6" d="m509.8,97.82c-.46-.27-.81-.64-1.06-1.12s-.38-1.01-.38-1.6.13-1.13.38-1.6c.25-.48.61-.85,1.06-1.12s.98-.4,1.57-.4,1.12.13,1.57.4c.46.27.81.64,1.06,1.12.25.48.38,1.01.38,1.6s-.13,1.13-.38,1.6-.61.85-1.06,1.12c-.46.27-.98.4-1.57.4s-1.12-.13-1.57-.4Zm2.7-.57c.34-.18.62-.46.83-.83.21-.37.31-.81.31-1.32s-.1-.95-.31-1.32c-.21-.37-.48-.64-.83-.83s-.72-.28-1.13-.28-.78.09-1.13.28c-.34.18-.62.46-.83.83-.21.37-.31.81-.31,1.32s.1.95.31,1.32c.21.37.48.64.83.83.34.18.72.28,1.13.28s.78-.09,1.13-.28Z"/>
        <path class="cls-6" d="m516.56,100.13c-.44-.33-.7-.76-.77-1.31h.86c.07.31.23.57.47.79s.59.32,1.06.32c.7,0,1.21-.17,1.51-.52.3-.35.46-.81.46-1.4v-.84c-.24.29-.54.52-.89.68-.36.17-.76.25-1.21.25-.53,0-1-.12-1.4-.37-.41-.24-.73-.6-.95-1.06-.23-.46-.34-1.01-.34-1.63s.12-1.17.36-1.63.57-.82.99-1.06.89-.37,1.42-.37c.46,0,.84.08,1.15.23.31.16.6.39.88.69v-.8h.74v5.96c0,.49-.1.93-.31,1.31s-.51.69-.91.91c-.4.22-.89.33-1.46.33-.66,0-1.21-.16-1.65-.49Zm3.05-3.25c.36-.35.53-.82.53-1.39v-.86c0-.37-.09-.7-.26-1s-.41-.53-.71-.7-.63-.25-.98-.25c-.61,0-1.11.2-1.51.61-.4.41-.59.99-.59,1.75s.2,1.34.59,1.75c.4.41.9.61,1.51.61s1.07-.18,1.42-.53Z"/>
        <path class="cls-6" d="m523.6,97.82c-.46-.27-.81-.64-1.06-1.12s-.38-1.01-.38-1.6.13-1.13.38-1.6c.25-.48.61-.85,1.06-1.12s.98-.4,1.57-.4,1.12.13,1.57.4c.46.27.81.64,1.06,1.12.25.48.38,1.01.38,1.6s-.13,1.13-.38,1.6-.61.85-1.06,1.12c-.46.27-.98.4-1.57.4s-1.12-.13-1.57-.4Zm2.7-.57c.34-.18.62-.46.83-.83.21-.37.31-.81.31-1.32s-.1-.95-.31-1.32c-.21-.37-.48-.64-.83-.83s-.72-.28-1.13-.28-.78.09-1.13.28c-.34.18-.62.46-.83.83-.21.37-.31.81-.31,1.32s.1.95.31,1.32c.21.37.48.64.83.83.34.18.72.28,1.13.28s.78-.09,1.13-.28Z"/>
        <path class="cls-6" d="m529.32,97.9c-.13-.13-.2-.29-.2-.46s.07-.34.2-.47.29-.19.46-.19c.18,0,.34.06.47.19s.19.28.19.47-.06.33-.19.46c-.13.13-.28.2-.47.2s-.33-.07-.46-.2Z"/>
        <path class="cls-6" d="m532.14,97.69c-.42-.35-.66-.84-.72-1.46h.74c.07.45.24.78.51.98.27.21.65.31,1.13.31.37,0,.69-.1.97-.29.28-.2.42-.47.42-.82,0-.31-.13-.56-.4-.74-.26-.18-.72-.34-1.36-.47-.61-.13-1.06-.34-1.36-.62-.3-.29-.44-.63-.44-1.03,0-.28.08-.54.23-.77.16-.24.38-.43.67-.57s.63-.22,1.01-.22c.58,0,1.06.16,1.45.47.39.31.6.75.64,1.31h-.74c-.04-.34-.18-.6-.41-.8-.24-.2-.55-.3-.93-.3s-.66.08-.86.23c-.21.15-.31.36-.31.62s.11.48.34.65c.22.17.64.33,1.25.46.69.16,1.19.37,1.5.64.31.27.47.63.47,1.1,0,.34-.09.65-.27.93-.18.28-.43.51-.76.68s-.7.25-1.13.25c-.68,0-1.23-.18-1.64-.53Z"/>
        <path class="cls-6" d="m536.4,92.1h.8l1.79,4.66.18.7.18-.7,1.79-4.66h.8l-2.35,6h-.84l-2.35-6Z"/>
        <path class="cls-6" d="m543.62,100.13c-.44-.33-.7-.76-.77-1.31h.86c.07.31.23.57.47.79s.59.32,1.06.32c.7,0,1.21-.17,1.51-.52.3-.35.46-.81.46-1.4v-.84c-.24.29-.54.52-.89.68-.36.17-.76.25-1.21.25-.53,0-1-.12-1.4-.37-.41-.24-.73-.6-.95-1.06-.23-.46-.34-1.01-.34-1.63s.12-1.17.36-1.63.57-.82.99-1.06.89-.37,1.42-.37c.46,0,.84.08,1.15.23.31.16.6.39.88.69v-.8h.74v5.96c0,.49-.1.93-.31,1.31s-.51.69-.91.91c-.4.22-.89.33-1.46.33-.66,0-1.21-.16-1.65-.49Zm3.05-3.25c.36-.35.53-.82.53-1.39v-.86c0-.37-.09-.7-.26-1s-.41-.53-.71-.7-.63-.25-.98-.25c-.61,0-1.11.2-1.51.61-.4.41-.59.99-.59,1.75s.2,1.34.59,1.75c.4.41.9.61,1.51.61s1.07-.18,1.42-.53Z"/>
        <path class="cls-6" d="m548.98,89.7h.91l-.12,2.59h-.67l-.12-2.59Zm1.63,0h.91l-.12,2.59h-.67l-.12-2.59Z"/>
        <path class="cls-6" d="m557.02,89.7h.8l-4.56,8.4h-.8l4.56-8.4Z"/>
        <path class="cls-6" d="m559.1,96.25l3.2-1.75-3.2-1.75v-.79l4.02,2.2v.7l-4.02,2.2v-.79Z"/>
      </g>
    </g>
    <rect class="cls-8" x="290.66" y=".5" width="100" height="80"/>
  </g>
  <text class="cls-10" transform="translate(297.79 15.8)"><tspan class="cls-2" x="0" y="0">W</tspan><tspan class="cls-20" x="11.42" y="0">ebp</tspan><tspan class="cls-26" x="32.78" y="0">a</tspan><tspan x="39.22" y="0">ge</tspan></text>
  <line class="cls-7" x1="259.28" y1="200.5" x2="305.35" y2="200.5"/>
  <g>
    <rect class="cls-17" x="305.35" y="160.5" width="100" height="80"/>
    <g class="cls-14">
      <g>
        <path class="cls-4" d="m314.34,202.62c-.18-.18-.28-.44-.28-.78v-3.16c0-.26-.06-.46-.19-.61s-.3-.23-.52-.23h-.25v-.7h.25c.22,0,.39-.08.52-.23.13-.15.19-.36.19-.61v-3.16c0-.34.09-.6.28-.78.18-.18.43-.28.73-.28h.54v.7h-.22c-.2,0-.35.05-.44.16-.1.1-.14.28-.14.54v2.83c0,.34-.07.61-.2.79-.13.18-.32.31-.56.39.24.08.43.21.56.39.13.18.2.44.2.79v2.83c0,.26.05.44.14.54.1.1.24.16.44.16h.22v.7h-.54c-.3,0-.55-.09-.73-.28Z"/>
        <path class="cls-4" d="m313.24,206.5h.91l-.12,2.59h-.67l-.12-2.59Zm1.63,0h.91l-.12,2.59h-.67l-.12-2.59Z"/>
        <path class="cls-4" d="m317.23,206.5h.82v8.4h-.82v-8.4Z"/>
        <path class="cls-4" d="m319.72,206.5h2.26c.86,0,1.6.17,2.24.52.64.35,1.13.84,1.47,1.47.34.63.52,1.37.52,2.21s-.17,1.58-.52,2.21c-.34.63-.83,1.12-1.47,1.47s-1.38.52-2.24.52h-2.26v-8.4Zm2.21,7.66c1.13,0,1.99-.3,2.57-.89s.88-1.45.88-2.56-.29-1.96-.88-2.56c-.59-.6-1.45-.89-2.57-.89h-1.39v6.91h1.39Z"/>
        <path class="cls-4" d="m326.92,206.5h.91l-.12,2.59h-.67l-.12-2.59Zm1.63,0h.91l-.12,2.59h-.67l-.12-2.59Z"/>
        <path class="cls-4" d="m330.87,209.9c-.13-.13-.2-.29-.2-.46s.07-.34.2-.47.29-.19.46-.19c.18,0,.34.06.47.19s.19.28.19.47-.06.33-.19.46c-.13.13-.28.2-.47.2s-.33-.07-.46-.2Zm0,4.8c-.13-.13-.2-.29-.2-.46s.07-.34.2-.47c.13-.13.29-.19.46-.19.18,0,.34.06.47.19.13.13.19.29.19.47s-.06.33-.19.46c-.13.13-.28.2-.47.2s-.33-.07-.46-.2Z"/>
        <path class="cls-4" d="m336.96,214.63c-.43-.26-.77-.63-1.01-1.1-.24-.47-.36-1.02-.36-1.63s.13-1.15.38-1.63c.25-.48.6-.84,1.03-1.1.44-.26.91-.39,1.43-.39s.99.12,1.4.35.74.57.97,1.01c.24.44.35.96.35,1.55v.36h-4.75c0,.68.2,1.23.58,1.65s.87.63,1.47.63c.53,0,.93-.12,1.21-.37.28-.24.47-.57.59-.97h.74c-.16.63-.45,1.13-.88,1.49-.43.36-.99.54-1.67.54-.56,0-1.06-.13-1.49-.39Zm3.46-3.21c0-.35-.1-.68-.26-.98-.17-.3-.4-.54-.7-.71s-.64-.26-1.01-.26c-.57,0-1.03.18-1.39.54-.36.36-.57.83-.64,1.4h4.01Z"/>
        <path class="cls-4" d="m343.46,211.67l-1.82-2.77h.88l1.42,2.15,1.42-2.15h.88l-1.82,2.77,2.14,3.23h-.89l-1.72-2.65-1.72,2.65h-.89l2.14-3.23Z"/>
        <path class="cls-4" d="m347.72,214.53c-.33-.33-.49-.76-.49-1.29s.19-.99.58-1.3.88-.5,1.47-.56l1.86-.19v-.25c0-.97-.5-1.45-1.49-1.45-.38,0-.69.1-.94.3-.25.21-.39.48-.43.82h-.74c.05-.61.28-1.06.7-1.37.42-.3.9-.46,1.43-.46.7,0,1.24.19,1.63.56.39.38.58.9.58,1.56v2.77c0,.2.04.35.13.46s.22.16.4.16c.1,0,.21-.02.31-.05v.6c-.16.08-.35.12-.58.12-.3,0-.53-.09-.71-.28-.18-.19-.28-.42-.3-.69-.62.68-1.31,1.02-2.08,1.02-.57,0-1.02-.16-1.34-.49Zm3.42-1.4v-1.31l-1.64.17c-.47.05-.84.18-1.12.39-.27.21-.41.5-.41.86,0,.32.11.58.32.79.22.2.5.31.86.31.76,0,1.42-.4,1.98-1.2Z"/>
        <path class="cls-4" d="m353.89,208.9h.74v.9c.18-.28.45-.52.79-.72.34-.2.7-.3,1.07-.3.77,0,1.29.32,1.56.97.24-.3.53-.54.86-.71.34-.17.7-.26,1.1-.26.54,0,.95.15,1.25.46.3.31.44.74.44,1.29v4.37h-.74v-4.19c0-.82-.38-1.24-1.13-1.24-.31,0-.62.1-.93.31-.31.21-.55.47-.74.78v4.33h-.74v-4.14c0-.41-.1-.72-.29-.95-.2-.22-.46-.34-.79-.34-.35,0-.68.12-.98.37s-.55.53-.74.87v4.19h-.76v-6Z"/>
        <path class="cls-4" d="m363.25,208.9h.74v.85c.22-.28.5-.51.85-.7.35-.18.75-.28,1.22-.28.5,0,.94.12,1.33.37.39.24.7.6.92,1.07.22.47.34,1.03.34,1.68s-.11,1.21-.34,1.68c-.23.47-.54.83-.94,1.07-.4.24-.85.37-1.36.37-.42,0-.81-.08-1.15-.25-.34-.16-.63-.4-.86-.71v3.24h-.74v-8.4Zm4.12,4.79c.36-.42.54-1.02.54-1.79s-.17-1.38-.52-1.8-.84-.62-1.48-.62c-.41,0-.76.09-1.04.28s-.51.42-.65.72c-.15.3-.22.61-.22.94v1.06c0,.29.08.58.25.86.16.29.39.53.68.71s.62.28.99.28c.61,0,1.09-.21,1.45-.63Z"/>
        <path class="cls-4" d="m369.92,206.14h.74v8.76h-.74v-8.76Z"/>
        <path class="cls-4" d="m373.3,214.63c-.43-.26-.77-.63-1.01-1.1-.24-.47-.36-1.02-.36-1.63s.13-1.15.38-1.63c.25-.48.6-.84,1.03-1.1.44-.26.91-.39,1.43-.39s.99.12,1.4.35.74.57.97,1.01c.24.44.35.96.35,1.55v.36h-4.75c0,.68.2,1.23.58,1.65s.87.63,1.47.63c.53,0,.93-.12,1.21-.37.28-.24.47-.57.59-.97h.74c-.16.63-.45,1.13-.88,1.49-.43.36-.99.54-1.67.54-.56,0-1.06-.13-1.49-.39Zm3.46-3.21c0-.35-.1-.68-.26-.98-.17-.3-.4-.54-.7-.71s-.64-.26-1.01-.26c-.57,0-1.03.18-1.39.54-.36.36-.57.83-.64,1.4h4.01Z"/>
        <path class="cls-4" d="m378.49,214.7c-.13-.13-.2-.29-.2-.46s.07-.34.2-.47c.13-.13.29-.19.46-.19.18,0,.34.06.47.19.13.13.19.29.19.47s-.06.33-.19.46c-.13.13-.28.2-.47.2s-.33-.07-.46-.2Z"/>
        <path class="cls-4" d="m313.24,220.9h.91l-.12,2.59h-.67l-.12-2.59Zm1.63,0h.91l-.12,2.59h-.67l-.12-2.59Z"/>
        <path class="cls-4" d="m317.65,228.91c-.34-.34-.52-.83-.52-1.46v-4.15h.74v4.12c0,.4.12.72.36.95.24.24.58.35,1.01.35.38,0,.75-.13,1.11-.4.36-.26.64-.61.86-1.03v-4h.74v6h-.74v-1.01c-.19.3-.48.56-.88.79-.39.23-.81.34-1.26.34-.61,0-1.08-.17-1.43-.51Z"/>
        <path class="cls-4" d="m323.85,228.89c-.42-.35-.66-.84-.72-1.46h.74c.07.45.24.78.51.98.27.21.65.31,1.13.31.37,0,.69-.1.97-.29.28-.2.42-.47.42-.82,0-.31-.13-.56-.4-.74-.26-.18-.72-.34-1.36-.47-.61-.13-1.06-.34-1.36-.62-.3-.29-.44-.63-.44-1.03,0-.28.08-.54.23-.77.16-.24.38-.43.67-.57.29-.14.63-.22,1.01-.22.58,0,1.06.16,1.45.47.39.31.6.75.64,1.31h-.74c-.04-.34-.18-.6-.41-.8-.24-.2-.55-.3-.93-.3s-.66.08-.86.23-.31.36-.31.62.11.48.34.65c.22.17.64.33,1.25.46.69.16,1.19.37,1.5.64.31.27.47.63.47,1.1,0,.34-.09.65-.27.93-.18.28-.43.51-.76.68s-.7.25-1.13.25c-.68,0-1.23-.18-1.64-.53Z"/>
        <path class="cls-4" d="m329.96,229.03c-.43-.26-.77-.62-1.01-1.1-.24-.47-.36-1.02-.36-1.63s.13-1.15.38-1.63.6-.84,1.03-1.1c.44-.26.91-.39,1.43-.39s.99.12,1.4.35c.41.23.74.57.97,1.01.24.44.35.96.35,1.55v.36h-4.75c0,.68.2,1.23.58,1.65s.87.63,1.47.63c.53,0,.93-.12,1.21-.37.28-.24.47-.57.59-.97h.74c-.16.63-.45,1.13-.88,1.49s-.99.54-1.67.54c-.56,0-1.06-.13-1.49-.39Zm3.46-3.21c0-.35-.1-.68-.26-.98s-.4-.54-.7-.71c-.3-.17-.64-.26-1.01-.26-.57,0-1.03.18-1.39.54s-.57.83-.64,1.4h4.01Z"/>
        <path class="cls-4" d="m335.36,223.3h.74v.9c.17-.28.41-.52.71-.72.31-.2.64-.3.99-.3.23,0,.4.03.52.1l-.13.64c-.1-.02-.24-.04-.42-.04-.33,0-.65.12-.96.37-.31.24-.55.56-.71.94v4.12h-.74v-6Z"/>
        <path class="cls-4" d="m338.92,229.42h5.08v.67h-5.08v-.67Z"/>
        <path class="cls-4" d="m345.08,220.54h.74v8.76h-.74v-8.76Z"/>
        <path class="cls-4" d="m348.54,229.02c-.46-.27-.81-.64-1.06-1.12-.25-.48-.38-1.01-.38-1.6s.13-1.13.38-1.6c.25-.47.61-.85,1.06-1.12s.98-.4,1.57-.4,1.12.13,1.57.4c.46.27.81.64,1.06,1.12.25.48.38,1.01.38,1.6s-.13,1.13-.38,1.6c-.25.48-.61.85-1.06,1.12-.46.27-.98.4-1.57.4s-1.12-.13-1.57-.4Zm2.7-.57c.34-.18.62-.46.83-.83.21-.37.31-.81.31-1.32s-.1-.95-.31-1.32c-.21-.37-.48-.64-.83-.83-.34-.18-.72-.28-1.13-.28s-.78.09-1.13.28c-.34.18-.62.46-.83.83-.21.37-.31.81-.31,1.32s.1.95.31,1.32c.21.37.48.64.83.83.34.18.72.28,1.13.28s.78-.09,1.13-.28Z"/>
        <path class="cls-4" d="m355.3,231.33c-.44-.33-.7-.76-.77-1.31h.86c.07.31.23.57.47.79s.59.32,1.06.32c.7,0,1.21-.17,1.51-.52.3-.35.46-.81.46-1.4v-.84c-.24.29-.54.52-.89.68-.36.17-.76.25-1.21.25-.53,0-1-.12-1.4-.37-.41-.24-.73-.6-.95-1.06-.23-.46-.34-1.01-.34-1.63s.12-1.17.36-1.63c.24-.46.57-.82.99-1.06s.89-.37,1.42-.37c.46,0,.84.08,1.15.23.31.16.6.39.88.69v-.8h.74v5.96c0,.49-.1.93-.31,1.31-.2.39-.51.69-.91.91-.4.22-.89.33-1.46.33-.66,0-1.21-.16-1.65-.49Zm3.05-3.25c.36-.35.53-.82.53-1.39v-.86c0-.37-.09-.7-.26-1-.18-.3-.41-.53-.71-.7s-.63-.25-.98-.25c-.61,0-1.11.2-1.51.61-.4.41-.59.99-.59,1.75s.2,1.34.59,1.75c.4.41.9.61,1.51.61s1.07-.18,1.42-.53Z"/>
        <path class="cls-4" d="m361.19,222.07c-.12-.12-.17-.25-.17-.4,0-.16.06-.3.17-.41.12-.11.25-.17.4-.17.16,0,.3.06.41.17.11.11.17.25.17.41s-.06.29-.17.4c-.11.12-.25.17-.41.17-.15,0-.29-.06-.4-.17Zm.03,1.23h.74v6h-.74v-6Z"/>
        <path class="cls-4" d="m363.56,223.3h.74v1.01c.19-.3.48-.56.88-.79.39-.23.81-.34,1.26-.34.61,0,1.08.17,1.43.5.34.33.52.8.52,1.4v4.22h-.74v-4.12c0-.4-.12-.72-.36-.95-.24-.24-.58-.35-1.01-.35-.37,0-.73.13-1.08.39-.35.26-.65.61-.89,1.04v4h-.74v-6Z"/>
        <path class="cls-4" d="m369.37,220.9h.91l-.12,2.59h-.67l-.12-2.59Zm1.63,0h.91l-.12,2.59h-.67l-.12-2.59Z"/>
        <path class="cls-4" d="m373.31,224.3c-.13-.13-.2-.29-.2-.46s.07-.34.2-.47c.13-.13.29-.19.46-.19.18,0,.34.06.47.19.13.13.19.29.19.47s-.06.33-.19.46-.28.2-.47.2-.33-.07-.46-.2Zm0,4.8c-.13-.13-.2-.29-.2-.46s.07-.34.2-.47.29-.19.46-.19c.18,0,.34.06.47.19s.19.28.19.47-.06.33-.19.46c-.13.13-.28.2-.47.2s-.33-.07-.46-.2Z"/>
        <path class="cls-4" d="m378.15,220.9h.91l-.12,2.59h-.67l-.12-2.59Zm1.63,0h.91l-.12,2.59h-.67l-.12-2.59Z"/>
        <path class="cls-4" d="m382.78,229.03c-.43-.26-.77-.62-1.01-1.1-.24-.47-.36-1.02-.36-1.63s.13-1.15.38-1.63.6-.84,1.03-1.1c.44-.26.91-.39,1.43-.39s.99.12,1.4.35c.41.23.74.57.97,1.01.24.44.35.96.35,1.55v.36h-4.75c0,.68.2,1.23.58,1.65s.87.63,1.47.63c.53,0,.93-.12,1.21-.37.28-.24.47-.57.59-.97h.74c-.16.63-.45,1.13-.88,1.49s-.99.54-1.67.54c-.56,0-1.06-.13-1.49-.39Zm3.46-3.21c0-.35-.1-.68-.26-.98s-.4-.54-.7-.71c-.3-.17-.64-.26-1.01-.26-.57,0-1.03.18-1.39.54s-.57.83-.64,1.4h4.01Z"/>
        <path class="cls-4" d="m389.29,226.07l-1.82-2.77h.88l1.42,2.15,1.42-2.15h.88l-1.82,2.77,2.14,3.23h-.89l-1.72-2.65-1.72,2.65h-.89l2.14-3.23Z"/>
        <path class="cls-4" d="m393.55,228.93c-.33-.33-.49-.76-.49-1.3s.19-.99.58-1.3.88-.5,1.47-.56l1.86-.19v-.25c0-.97-.5-1.45-1.49-1.45-.38,0-.69.1-.94.31-.25.2-.39.48-.43.82h-.74c.05-.61.28-1.06.7-1.37.42-.3.9-.46,1.43-.46.7,0,1.24.19,1.63.56.39.38.58.9.58,1.56v2.77c0,.2.04.35.13.46.09.11.22.16.4.16.1,0,.21-.02.31-.05v.6c-.16.08-.35.12-.58.12-.3,0-.53-.09-.71-.28s-.28-.42-.3-.69c-.62.68-1.31,1.02-2.08,1.02-.57,0-1.02-.16-1.34-.49Zm3.42-1.4v-1.31l-1.64.17c-.47.05-.84.18-1.12.39-.27.21-.41.5-.41.86,0,.32.11.58.32.79.22.2.5.31.86.31.76,0,1.42-.4,1.98-1.2Z"/>
        <path class="cls-4" d="m399.71,223.3h.74v.9c.18-.28.45-.52.79-.72.34-.2.7-.3,1.07-.3.77,0,1.29.32,1.56.97.24-.3.53-.54.86-.71s.7-.26,1.1-.26c.54,0,.95.15,1.25.46s.44.74.44,1.29v4.37h-.74v-4.19c0-.82-.38-1.24-1.13-1.24-.31,0-.62.1-.93.31-.31.21-.55.47-.74.78v4.33h-.74v-4.14c0-.41-.1-.72-.29-.95s-.46-.34-.79-.34c-.35,0-.68.12-.98.37s-.55.53-.74.87v4.19h-.76v-6Z"/>
        <path class="cls-4" d="m409.07,223.3h.74v.85c.22-.28.5-.51.85-.7.35-.18.75-.28,1.22-.28.5,0,.94.12,1.33.37.39.24.7.6.92,1.07.22.47.34,1.03.34,1.68s-.11,1.21-.34,1.68c-.23.47-.54.83-.94,1.07-.4.24-.85.37-1.36.37-.42,0-.81-.08-1.15-.25-.34-.16-.63-.4-.86-.71v3.24h-.74v-8.4Zm4.12,4.79c.36-.42.54-1.02.54-1.79s-.17-1.38-.52-1.8-.84-.62-1.48-.62c-.41,0-.76.09-1.04.28-.29.18-.51.42-.65.72-.15.3-.22.61-.22.94v1.06c0,.29.08.58.25.87.16.29.39.53.68.71.29.19.62.28.99.28.61,0,1.09-.21,1.45-.63Z"/>
        <path class="cls-4" d="m415.75,220.54h.74v8.76h-.74v-8.76Z"/>
        <path class="cls-4" d="m419.13,229.03c-.43-.26-.77-.62-1.01-1.1-.24-.47-.36-1.02-.36-1.63s.13-1.15.38-1.63.6-.84,1.03-1.1c.44-.26.91-.39,1.43-.39s.99.12,1.4.35c.41.23.74.57.97,1.01.24.44.35.96.35,1.55v.36h-4.75c0,.68.2,1.23.58,1.65s.87.63,1.47.63c.53,0,.93-.12,1.21-.37.28-.24.47-.57.59-.97h.74c-.16.63-.45,1.13-.88,1.49s-.99.54-1.67.54c-.56,0-1.06-.13-1.49-.39Zm3.46-3.21c0-.35-.1-.68-.26-.98s-.4-.54-.7-.71c-.3-.17-.64-.26-1.01-.26-.57,0-1.03.18-1.39.54s-.57.83-.64,1.4h4.01Z"/>
        <path class="cls-4" d="m426.56,231.27c-.64-.37-1.18-.97-1.6-1.79-.42-.83-.63-1.89-.63-3.17,0-1.16.18-2.16.55-2.99.37-.83.87-1.46,1.51-1.89s1.35-.64,2.14-.64c1.11,0,1.95.29,2.5.85.56.57.83,1.37.83,2.4v5.27h-.74v-.88c-.24.32-.53.57-.87.74-.34.17-.71.26-1.11.26-.53,0-1-.13-1.4-.38-.41-.26-.73-.62-.95-1.09-.23-.47-.34-1.02-.34-1.65s.11-1.18.34-1.66c.23-.47.55-.83.95-1.09s.88-.38,1.4-.38c.82,0,1.48.3,1.98.9,0-.86-.21-1.51-.64-1.93s-1.08-.63-1.96-.63c-.58,0-1.12.17-1.63.5s-.93.86-1.26,1.57c-.33.72-.49,1.62-.49,2.71s.16,1.98.48,2.69c.32.71.74,1.24,1.25,1.58.52.34,1.08.5,1.7.5s1.06-.07,1.4-.22c.34-.14.62-.4.85-.76h.7c-.26.56-.63.99-1.1,1.28-.47.29-1.08.44-1.84.44-.7,0-1.38-.18-2.02-.55Zm4.05-3.07c.34-.32.52-.73.52-1.24v-1.32c0-.5-.17-.92-.52-1.24-.34-.32-.81-.48-1.39-.48-.62,0-1.12.19-1.48.58s-.55.99-.55,1.79.18,1.41.55,1.79c.36.39.86.58,1.48.58.58,0,1.05-.16,1.39-.48Z"/>
        <path class="cls-4" d="m433.31,220.9h.91l-.12,2.59h-.67l-.12-2.59Zm1.63,0h.91l-.12,2.59h-.67l-.12-2.59Z"/>
        <path class="cls-4" d="m436.99,230.38c.22-.18.38-.35.5-.52s.18-.36.19-.56c-.18,0-.32-.07-.44-.21s-.18-.29-.18-.44c0-.18.06-.34.19-.47s.28-.2.47-.2.35.07.47.2.19.3.19.51c0,.38-.1.72-.31,1.02-.21.3-.5.59-.89.85l-.19-.18Z"/>
        <path class="cls-4" d="m313.24,235.3h.91l-.12,2.59h-.67l-.12-2.59Zm1.63,0h.91l-.12,2.59h-.67l-.12-2.59Z"/>
        <path class="cls-4" d="m317.65,243.31c-.34-.34-.52-.83-.52-1.46v-4.15h.74v4.12c0,.4.12.72.36.95.24.24.58.35,1.01.35.38,0,.75-.13,1.11-.4.36-.26.64-.61.86-1.03v-4h.74v6h-.74v-1.01c-.19.3-.48.56-.88.79-.39.23-.81.34-1.26.34-.61,0-1.08-.17-1.43-.51Z"/>
        <path class="cls-4" d="m323.85,243.29c-.42-.35-.66-.84-.72-1.46h.74c.07.45.24.78.51.98.27.21.65.31,1.13.31.37,0,.69-.1.97-.29.28-.2.42-.47.42-.82,0-.31-.13-.56-.4-.74-.26-.18-.72-.34-1.36-.47-.61-.13-1.06-.34-1.36-.62-.3-.29-.44-.63-.44-1.03,0-.28.08-.54.23-.77.16-.24.38-.43.67-.57.29-.14.63-.22,1.01-.22.58,0,1.06.16,1.45.47.39.31.6.75.64,1.31h-.74c-.04-.34-.18-.6-.41-.8-.24-.2-.55-.3-.93-.3s-.66.08-.86.23-.31.36-.31.62.11.48.34.65c.22.17.64.33,1.25.46.69.16,1.19.37,1.5.64.31.27.47.63.47,1.1,0,.34-.09.65-.27.93-.18.28-.43.51-.76.68s-.7.25-1.13.25c-.68,0-1.23-.18-1.64-.53Z"/>
        <path class="cls-4" d="m329.96,243.43c-.43-.26-.77-.62-1.01-1.1-.24-.47-.36-1.02-.36-1.63s.13-1.15.38-1.63.6-.84,1.03-1.1c.44-.26.91-.39,1.43-.39s.99.12,1.4.35c.41.23.74.57.97,1.01.24.44.35.96.35,1.55v.36h-4.75c0,.68.2,1.23.58,1.65s.87.63,1.47.63c.53,0,.93-.12,1.21-.37.28-.24.47-.57.59-.97h.74c-.16.63-.45,1.13-.88,1.49s-.99.54-1.67.54c-.56,0-1.06-.13-1.49-.39Zm3.46-3.21c0-.35-.1-.68-.26-.98s-.4-.54-.7-.71c-.3-.17-.64-.26-1.01-.26-.57,0-1.03.18-1.39.54s-.57.83-.64,1.4h4.01Z"/>
        <path class="cls-4" d="m335.36,237.7h.74v.9c.17-.28.41-.52.71-.72.31-.2.64-.3.99-.3.23,0,.4.03.52.1l-.13.64c-.1-.02-.24-.04-.42-.04-.33,0-.65.12-.96.37-.31.24-.55.56-.71.94v4.12h-.74v-6Z"/>
        <path class="cls-4" d="m343,243.43c-.43-.26-.77-.62-1.01-1.1-.24-.47-.36-1.02-.36-1.63s.13-1.15.38-1.63.6-.84,1.03-1.1c.44-.26.91-.39,1.43-.39s.99.12,1.4.35c.41.23.74.57.97,1.01.24.44.35.96.35,1.55v.36h-4.75c0,.68.2,1.23.58,1.65s.87.63,1.47.63c.53,0,.93-.12,1.21-.37.28-.24.47-.57.59-.97h.74c-.16.63-.45,1.13-.88,1.49s-.99.54-1.67.54c-.56,0-1.06-.13-1.49-.39Zm3.46-3.21c0-.35-.1-.68-.26-.98s-.4-.54-.7-.71c-.3-.17-.64-.26-1.01-.26-.57,0-1.03.18-1.39.54s-.57.83-.64,1.4h4.01Z"/>
        <path class="cls-4" d="m348.42,237.7h.74v.9c.18-.28.45-.52.79-.72.34-.2.7-.3,1.07-.3.77,0,1.29.32,1.56.97.24-.3.53-.54.86-.71s.7-.26,1.1-.26c.54,0,.95.15,1.25.46s.44.74.44,1.29v4.37h-.74v-4.19c0-.82-.38-1.24-1.13-1.24-.31,0-.62.1-.93.31-.31.21-.55.47-.74.78v4.33h-.74v-4.14c0-.41-.1-.72-.29-.95s-.46-.34-.79-.34c-.35,0-.68.12-.98.37s-.55.53-.74.87v4.19h-.76v-6Z"/>
        <path class="cls-4" d="m357.98,243.33c-.33-.33-.49-.76-.49-1.3s.19-.99.58-1.3.88-.5,1.47-.56l1.86-.19v-.25c0-.97-.5-1.45-1.49-1.45-.38,0-.69.1-.94.31-.25.2-.39.48-.43.82h-.74c.05-.61.28-1.06.7-1.37.42-.3.9-.46,1.43-.46.7,0,1.24.19,1.63.56.39.38.58.9.58,1.56v2.77c0,.2.04.35.13.46.09.11.22.16.4.16.1,0,.21-.02.31-.05v.6c-.16.08-.35.12-.58.12-.3,0-.53-.09-.71-.28s-.28-.42-.3-.69c-.62.68-1.31,1.02-2.08,1.02-.57,0-1.02-.16-1.34-.49Zm3.42-1.4v-1.31l-1.64.17c-.47.05-.84.18-1.12.39-.27.21-.41.5-.41.86,0,.32.11.58.32.79.22.2.5.31.86.31.76,0,1.42-.4,1.98-1.2Z"/>
        <path class="cls-4" d="m364.12,236.47c-.12-.12-.17-.25-.17-.4,0-.16.06-.3.17-.41.12-.11.25-.17.4-.17.16,0,.3.06.41.17.11.11.17.25.17.41s-.06.29-.17.4c-.11.12-.25.17-.41.17-.15,0-.29-.06-.4-.17Zm.03,1.23h.74v6h-.74v-6Z"/>
        <path class="cls-4" d="m366.49,234.94h.74v8.76h-.74v-8.76Z"/>
        <path class="cls-4" d="m368.62,235.3h.91l-.12,2.59h-.67l-.12-2.59Zm1.63,0h.91l-.12,2.59h-.67l-.12-2.59Z"/>
        <path class="cls-4" d="m372.56,238.7c-.13-.13-.2-.29-.2-.46s.07-.34.2-.47c.13-.13.29-.19.46-.19.18,0,.34.06.47.19.13.13.19.29.19.47s-.06.33-.19.46-.28.2-.47.2-.33-.07-.46-.2Zm0,4.8c-.13-.13-.2-.29-.2-.46s.07-.34.2-.47.29-.19.46-.19c.18,0,.34.06.47.19s.19.28.19.47-.06.33-.19.46c-.13.13-.28.2-.47.2s-.33-.07-.46-.2Z"/>
        <path class="cls-4" d="m377.41,235.3h.91l-.12,2.59h-.67l-.12-2.59Zm1.63,0h.91l-.12,2.59h-.67l-.12-2.59Z"/>
        <path class="cls-4" d="m382.04,243.43c-.43-.26-.77-.62-1.01-1.1-.24-.47-.36-1.02-.36-1.63s.13-1.15.38-1.63.6-.84,1.03-1.1c.44-.26.91-.39,1.43-.39s.99.12,1.4.35c.41.23.74.57.97,1.01.24.44.35.96.35,1.55v.36h-4.75c0,.68.2,1.23.58,1.65s.87.63,1.47.63c.53,0,.93-.12,1.21-.37.28-.24.47-.57.59-.97h.74c-.16.63-.45,1.13-.88,1.49s-.99.54-1.67.54c-.56,0-1.06-.13-1.49-.39Zm3.46-3.21c0-.35-.1-.68-.26-.98s-.4-.54-.7-.71c-.3-.17-.64-.26-1.01-.26-.57,0-1.03.18-1.39.54s-.57.83-.64,1.4h4.01Z"/>
        <path class="cls-4" d="m388.54,240.47l-1.82-2.77h.88l1.42,2.15,1.42-2.15h.88l-1.82,2.77,2.14,3.23h-.89l-1.72-2.65-1.72,2.65h-.89l2.14-3.23Z"/>
        <path class="cls-4" d="m392.8,243.33c-.33-.33-.49-.76-.49-1.3s.19-.99.58-1.3.88-.5,1.47-.56l1.86-.19v-.25c0-.97-.5-1.45-1.49-1.45-.38,0-.69.1-.94.31-.25.2-.39.48-.43.82h-.74c.05-.61.28-1.06.7-1.37.42-.3.9-.46,1.43-.46.7,0,1.24.19,1.63.56.39.38.58.9.58,1.56v2.77c0,.2.04.35.13.46.09.11.22.16.4.16.1,0,.21-.02.31-.05v.6c-.16.08-.35.12-.58.12-.3,0-.53-.09-.71-.28s-.28-.42-.3-.69c-.62.68-1.31,1.02-2.08,1.02-.57,0-1.02-.16-1.34-.49Zm3.42-1.4v-1.31l-1.64.17c-.47.05-.84.18-1.12.39-.27.21-.41.5-.41.86,0,.32.11.58.32.79.22.2.5.31.86.31.76,0,1.42-.4,1.98-1.2Z"/>
        <path class="cls-4" d="m398.97,237.7h.74v.9c.18-.28.45-.52.79-.72.34-.2.7-.3,1.07-.3.77,0,1.29.32,1.56.97.24-.3.53-.54.86-.71s.7-.26,1.1-.26c.54,0,.95.15,1.25.46s.44.74.44,1.29v4.37h-.74v-4.19c0-.82-.38-1.24-1.13-1.24-.31,0-.62.1-.93.31-.31.21-.55.47-.74.78v4.33h-.74v-4.14c0-.41-.1-.72-.29-.95s-.46-.34-.79-.34c-.35,0-.68.12-.98.37s-.55.53-.74.87v4.19h-.76v-6Z"/>
        <path class="cls-4" d="m408.33,237.7h.74v.85c.22-.28.5-.51.85-.7.35-.18.75-.28,1.22-.28.5,0,.94.12,1.33.37.39.24.7.6.92,1.07.22.47.34,1.03.34,1.68s-.11,1.21-.34,1.68c-.23.47-.54.83-.94,1.07-.4.24-.85.37-1.36.37-.42,0-.81-.08-1.15-.25-.34-.16-.63-.4-.86-.71v3.24h-.74v-8.4Zm4.12,4.79c.36-.42.54-1.02.54-1.79s-.17-1.38-.52-1.8-.84-.62-1.48-.62c-.41,0-.76.09-1.04.28-.29.18-.51.42-.65.72-.15.3-.22.61-.22.94v1.06c0,.29.08.58.25.87.16.29.39.53.68.71.29.19.62.28.99.28.61,0,1.09-.21,1.45-.63Z"/>
        <path class="cls-4" d="m415,234.94h.74v8.76h-.74v-8.76Z"/>
        <path class="cls-4" d="m418.39,243.43c-.43-.26-.77-.62-1.01-1.1-.24-.47-.36-1.02-.36-1.63s.13-1.15.38-1.63.6-.84,1.03-1.1c.44-.26.91-.39,1.43-.39s.99.12,1.4.35c.41.23.74.57.97,1.01.24.44.35.96.35,1.55v.36h-4.75c0,.68.2,1.23.58,1.65s.87.63,1.47.63c.53,0,.93-.12,1.21-.37.28-.24.47-.57.59-.97h.74c-.16.63-.45,1.13-.88,1.49s-.99.54-1.67.54c-.56,0-1.06-.13-1.49-.39Zm3.46-3.21c0-.35-.1-.68-.26-.98s-.4-.54-.7-.71c-.3-.17-.64-.26-1.01-.26-.57,0-1.03.18-1.39.54s-.57.83-.64,1.4h4.01Z"/>
        <path class="cls-4" d="m425.82,245.67c-.64-.37-1.18-.97-1.6-1.79-.42-.83-.63-1.89-.63-3.17,0-1.16.18-2.16.55-2.99.37-.83.87-1.46,1.51-1.89s1.35-.64,2.14-.64c1.11,0,1.95.29,2.5.85.56.57.83,1.37.83,2.4v5.27h-.74v-.88c-.24.32-.53.57-.87.74-.34.17-.71.26-1.11.26-.53,0-1-.13-1.4-.38-.41-.26-.73-.62-.95-1.09-.23-.47-.34-1.02-.34-1.65s.11-1.18.34-1.66c.23-.47.55-.83.95-1.09s.88-.38,1.4-.38c.82,0,1.48.3,1.98.9,0-.86-.21-1.51-.64-1.93s-1.08-.63-1.96-.63c-.58,0-1.12.17-1.63.5s-.93.86-1.26,1.57c-.33.72-.49,1.62-.49,2.71s.16,1.98.48,2.69c.32.71.74,1.24,1.25,1.58.52.34,1.08.5,1.7.5s1.06-.07,1.4-.22c.34-.14.62-.4.85-.76h.7c-.26.56-.63.99-1.1,1.28-.47.29-1.08.44-1.84.44-.7,0-1.38-.18-2.02-.55Zm4.05-3.07c.34-.32.52-.73.52-1.24v-1.32c0-.5-.17-.92-.52-1.24-.34-.32-.81-.48-1.39-.48-.62,0-1.12.19-1.48.58s-.55.99-.55,1.79.18,1.41.55,1.79c.36.39.86.58,1.48.58.58,0,1.05-.16,1.39-.48Z"/>
        <path class="cls-4" d="m432.57,235.3h.91l-.12,2.59h-.67l-.12-2.59Zm1.63,0h.91l-.12,2.59h-.67l-.12-2.59Z"/>
        <path class="cls-4" d="m436.24,244.78c.22-.18.38-.35.5-.52s.18-.36.19-.56c-.18,0-.32-.07-.44-.21s-.18-.29-.18-.44c0-.18.06-.34.19-.47s.28-.2.47-.2.35.07.47.2.19.3.19.51c0,.38-.1.72-.31,1.02-.21.3-.5.59-.89.85l-.19-.18Z"/>
        <path class="cls-4" d="m313.24,249.7h.91l-.12,2.59h-.67l-.12-2.59Zm1.63,0h.91l-.12,2.59h-.67l-.12-2.59Z"/>
        <path class="cls-4" d="m317.74,252.72h-1.02v-.62h1.02v-1.31c0-.5.14-.89.41-1.16.28-.27.63-.41,1.06-.41.24,0,.47.03.7.1v.64c-.21-.07-.41-.11-.61-.11-.3,0-.51.09-.63.26-.12.18-.19.43-.19.76v1.24h3.14v6h-.74v-5.38h-2.4v5.38h-.74v-5.38Zm3.11-1.85c-.12-.12-.17-.25-.17-.4,0-.16.06-.3.17-.41.12-.11.25-.17.4-.17.16,0,.3.06.41.17s.17.25.17.41c0,.15-.06.29-.17.4-.11.12-.25.17-.41.17s-.29-.06-.4-.17Z"/>
        <path class="cls-4" d="m323.23,252.1h.74v.9c.17-.28.41-.52.71-.72s.64-.3.99-.3c.23,0,.4.03.52.1l-.13.64c-.1-.02-.24-.04-.42-.04-.33,0-.65.12-.96.37-.31.24-.55.56-.71.94v4.12h-.74v-6Z"/>
        <path class="cls-4" d="m327.42,257.69c-.42-.35-.66-.84-.72-1.46h.74c.07.45.24.78.51.98.27.21.65.31,1.13.31.37,0,.69-.1.97-.29.28-.2.42-.47.42-.82,0-.31-.13-.56-.4-.74-.26-.18-.72-.34-1.36-.47-.61-.13-1.06-.34-1.36-.62-.3-.29-.44-.63-.44-1.03,0-.28.08-.54.23-.77.16-.24.38-.43.67-.57s.63-.22,1.01-.22c.58,0,1.06.16,1.45.47.39.31.6.75.64,1.31h-.74c-.04-.34-.18-.6-.41-.8s-.55-.3-.93-.3-.66.08-.86.23c-.21.15-.31.36-.31.62s.11.48.34.65c.22.17.64.33,1.25.46.69.16,1.19.37,1.5.64.31.27.47.63.47,1.1,0,.34-.09.65-.27.93-.18.28-.43.51-.76.68s-.7.25-1.13.25c-.68,0-1.23-.18-1.64-.53Z"/>
        <path class="cls-4" d="m333.23,257.83c-.22-.26-.33-.6-.33-1.01v-4.09h-1.13v-.62h1.13v-1.8l.74.28v1.52h1.38v.62h-1.38v3.98c0,.31.07.54.2.68.14.14.34.21.6.21.1,0,.2,0,.29-.03s.18-.05.29-.08v.61c-.25.08-.52.12-.8.12-.44,0-.77-.13-.99-.39Z"/>
        <path class="cls-4" d="m335.74,258.22h5.08v.67h-5.08v-.67Z"/>
        <path class="cls-4" d="m341.9,252.1h.74v1.01c.19-.29.48-.56.88-.79.39-.23.81-.34,1.26-.34.61,0,1.08.17,1.43.5.34.33.52.8.52,1.4v4.22h-.74v-4.12c0-.4-.12-.72-.36-.95-.24-.24-.58-.35-1.01-.35-.37,0-.73.13-1.08.39-.35.26-.65.61-.89,1.04v4h-.74v-6Z"/>
        <path class="cls-4" d="m348.46,257.73c-.33-.33-.49-.76-.49-1.3s.19-.99.58-1.3c.39-.32.88-.5,1.47-.56l1.86-.19v-.25c0-.97-.5-1.45-1.49-1.45-.38,0-.69.1-.94.31-.25.2-.39.48-.43.82h-.74c.05-.61.28-1.06.7-1.37.42-.3.9-.46,1.43-.46.7,0,1.24.19,1.63.56.39.38.58.9.58,1.56v2.77c0,.2.04.35.13.46.09.11.22.16.4.16.1,0,.21-.02.31-.05v.6c-.16.08-.35.12-.58.12-.3,0-.53-.09-.71-.28-.18-.19-.28-.42-.3-.69-.62.68-1.31,1.02-2.08,1.02-.57,0-1.02-.16-1.34-.49Zm3.42-1.4v-1.31l-1.64.17c-.47.05-.84.18-1.12.39-.27.21-.41.5-.41.86,0,.32.11.58.32.79.22.2.5.3.86.3.76,0,1.42-.4,1.98-1.2Z"/>
        <path class="cls-4" d="m354.63,252.1h.74v.9c.18-.28.45-.52.79-.72s.7-.3,1.07-.3c.77,0,1.29.32,1.56.97.24-.3.53-.54.86-.71s.7-.26,1.1-.26c.54,0,.95.15,1.25.46.3.31.44.74.44,1.29v4.37h-.74v-4.19c0-.82-.38-1.24-1.13-1.24-.31,0-.62.1-.93.31-.31.21-.55.47-.74.78v4.33h-.74v-4.14c0-.41-.1-.72-.29-.95-.2-.22-.46-.34-.79-.34-.35,0-.68.12-.98.37-.3.24-.55.53-.74.87v4.19h-.76v-6Z"/>
        <path class="cls-4" d="m365.05,257.83c-.43-.26-.77-.63-1.01-1.1-.24-.47-.36-1.02-.36-1.63s.13-1.15.38-1.62c.25-.48.6-.84,1.03-1.1.44-.26.91-.39,1.43-.39s.99.12,1.4.35.74.57.97,1.01c.24.44.35.96.35,1.55v.36h-4.75c0,.68.2,1.23.58,1.65s.87.63,1.47.63c.53,0,.93-.12,1.21-.37.28-.24.47-.57.59-.97h.74c-.16.63-.45,1.13-.88,1.49-.43.36-.99.54-1.67.54-.56,0-1.06-.13-1.49-.39Zm3.46-3.21c0-.35-.1-.68-.26-.98-.17-.3-.4-.54-.7-.71-.3-.17-.64-.26-1.01-.26-.57,0-1.03.18-1.39.54-.36.36-.57.83-.64,1.4h4.01Z"/>
        <path class="cls-4" d="m370.25,249.7h.91l-.12,2.59h-.67l-.12-2.59Zm1.63,0h.91l-.12,2.59h-.67l-.12-2.59Z"/>
        <path class="cls-4" d="m374.2,253.1c-.13-.13-.2-.29-.2-.46,0-.18.07-.34.2-.47.13-.13.29-.19.46-.19.18,0,.34.06.47.19.13.13.19.28.19.47s-.06.33-.19.46c-.13.13-.28.2-.47.2s-.33-.07-.46-.2Zm0,4.8c-.13-.13-.2-.29-.2-.46s.07-.34.2-.47c.13-.13.29-.19.46-.19.18,0,.34.06.47.19.13.13.19.28.19.47s-.06.33-.19.46c-.13.13-.28.2-.47.2s-.33-.07-.46-.2Z"/>
        <path class="cls-4" d="m379.04,249.7h.91l-.12,2.59h-.67l-.12-2.59Zm1.63,0h.91l-.12,2.59h-.67l-.12-2.59Z"/>
        <path class="cls-4" d="m383.67,257.83c-.43-.26-.77-.63-1.01-1.1-.24-.47-.36-1.02-.36-1.63s.13-1.15.38-1.62c.25-.48.6-.84,1.03-1.1.44-.26.91-.39,1.43-.39s.99.12,1.4.35.74.57.97,1.01c.24.44.35.96.35,1.55v.36h-4.75c0,.68.2,1.23.58,1.65s.87.63,1.47.63c.53,0,.93-.12,1.21-.37.28-.24.47-.57.59-.97h.74c-.16.63-.45,1.13-.88,1.49-.43.36-.99.54-1.67.54-.56,0-1.06-.13-1.49-.39Zm3.46-3.21c0-.35-.1-.68-.26-.98-.17-.3-.4-.54-.7-.71-.3-.17-.64-.26-1.01-.26-.57,0-1.03.18-1.39.54-.36.36-.57.83-.64,1.4h4.01Z"/>
        <path class="cls-4" d="m390.17,254.87l-1.82-2.77h.88l1.42,2.15,1.42-2.15h.88l-1.82,2.77,2.14,3.23h-.89l-1.72-2.65-1.72,2.65h-.89l2.14-3.23Z"/>
        <path class="cls-4" d="m394.43,257.73c-.33-.33-.49-.76-.49-1.3s.19-.99.58-1.3c.39-.32.88-.5,1.47-.56l1.86-.19v-.25c0-.97-.5-1.45-1.49-1.45-.38,0-.69.1-.94.31-.25.2-.39.48-.43.82h-.74c.05-.61.28-1.06.7-1.37.42-.3.9-.46,1.43-.46.7,0,1.24.19,1.63.56.39.38.58.9.58,1.56v2.77c0,.2.04.35.13.46.09.11.22.16.4.16.1,0,.21-.02.31-.05v.6c-.16.08-.35.12-.58.12-.3,0-.53-.09-.71-.28-.18-.19-.28-.42-.3-.69-.62.68-1.31,1.02-2.08,1.02-.57,0-1.02-.16-1.34-.49Zm3.42-1.4v-1.31l-1.64.17c-.47.05-.84.18-1.12.39-.27.21-.41.5-.41.86,0,.32.11.58.32.79.22.2.5.3.86.3.76,0,1.42-.4,1.98-1.2Z"/>
        <path class="cls-4" d="m400.6,252.1h.74v.9c.18-.28.45-.52.79-.72s.7-.3,1.07-.3c.77,0,1.29.32,1.56.97.24-.3.53-.54.86-.71s.7-.26,1.1-.26c.54,0,.95.15,1.25.46.3.31.44.74.44,1.29v4.37h-.74v-4.19c0-.82-.38-1.24-1.13-1.24-.31,0-.62.1-.93.31-.31.21-.55.47-.74.78v4.33h-.74v-4.14c0-.41-.1-.72-.29-.95-.2-.22-.46-.34-.79-.34-.35,0-.68.12-.98.37-.3.24-.55.53-.74.87v4.19h-.76v-6Z"/>
        <path class="cls-4" d="m409.96,252.1h.74v.85c.22-.28.5-.51.85-.7.35-.18.75-.28,1.22-.28.5,0,.94.12,1.33.37.39.24.7.6.92,1.07.22.47.34,1.03.34,1.68s-.11,1.21-.34,1.68c-.23.47-.54.83-.94,1.07-.4.24-.85.37-1.36.37-.42,0-.81-.08-1.15-.25-.34-.16-.63-.4-.86-.71v3.24h-.74v-8.4Zm4.12,4.79c.36-.42.54-1.02.54-1.79s-.17-1.38-.52-1.8-.84-.62-1.48-.62c-.41,0-.76.09-1.04.28s-.51.42-.65.72c-.15.3-.22.61-.22.94v1.06c0,.29.08.58.25.86s.39.53.68.71.62.28.99.28c.61,0,1.09-.21,1.45-.63Z"/>
        <path class="cls-4" d="m416.63,249.34h.74v8.76h-.74v-8.76Z"/>
        <path class="cls-4" d="m420.02,257.83c-.43-.26-.77-.63-1.01-1.1-.24-.47-.36-1.02-.36-1.63s.13-1.15.38-1.62c.25-.48.6-.84,1.03-1.1.44-.26.91-.39,1.43-.39s.99.12,1.4.35.74.57.97,1.01c.24.44.35.96.35,1.55v.36h-4.75c0,.68.2,1.23.58,1.65s.87.63,1.47.63c.53,0,.93-.12,1.21-.37.28-.24.47-.57.59-.97h.74c-.16.63-.45,1.13-.88,1.49-.43.36-.99.54-1.67.54-.56,0-1.06-.13-1.49-.39Zm3.46-3.21c0-.35-.1-.68-.26-.98-.17-.3-.4-.54-.7-.71-.3-.17-.64-.26-1.01-.26-.57,0-1.03.18-1.39.54-.36.36-.57.83-.64,1.4h4.01Z"/>
        <path class="cls-4" d="m425.23,249.7h.91l-.12,2.59h-.67l-.12-2.59Zm1.63,0h.91l-.12,2.59h-.67l-.12-2.59Z"/>
        <path class="cls-4" d="m428.9,259.18c.22-.18.38-.35.5-.52s.18-.36.19-.56c-.18,0-.32-.07-.44-.21-.12-.14-.18-.29-.18-.44,0-.18.06-.34.19-.47.13-.13.28-.2.47-.2s.35.07.47.2c.12.13.19.3.19.51,0,.38-.1.72-.31,1.02-.21.3-.5.59-.89.85l-.19-.18Z"/>
        <path class="cls-4" d="m313.24,264.1h.91l-.12,2.59h-.67l-.12-2.59Zm1.63,0h.91l-.12,2.59h-.67l-.12-2.59Z"/>
        <path class="cls-4" d="m317.18,263.74h.74v8.76h-.74v-8.76Z"/>
        <path class="cls-4" d="m319.71,272.13c-.33-.33-.49-.76-.49-1.3s.19-.99.58-1.3c.39-.32.88-.5,1.47-.56l1.86-.19v-.25c0-.97-.5-1.45-1.49-1.45-.38,0-.69.1-.94.31s-.39.48-.43.82h-.74c.05-.61.28-1.06.7-1.37.42-.3.9-.46,1.43-.46.7,0,1.24.19,1.63.56.39.38.58.9.58,1.56v2.77c0,.2.04.35.13.46.09.11.22.16.4.16.1,0,.21-.02.31-.05v.6c-.16.08-.35.12-.58.12-.3,0-.53-.09-.71-.28s-.28-.42-.3-.69c-.62.68-1.31,1.02-2.08,1.02-.57,0-1.02-.16-1.34-.49Zm3.42-1.4v-1.31l-1.64.17c-.47.05-.84.18-1.12.39-.27.21-.41.5-.41.86,0,.32.11.58.32.79s.5.31.86.31c.76,0,1.42-.4,1.98-1.2Z"/>
        <path class="cls-4" d="m326.06,272.09c-.42-.35-.66-.84-.72-1.46h.74c.07.45.24.78.51.98.27.21.65.31,1.13.31.37,0,.69-.1.97-.29s.42-.47.42-.82c0-.31-.13-.56-.4-.74-.26-.18-.72-.34-1.36-.47-.61-.13-1.06-.34-1.36-.62-.3-.29-.44-.63-.44-1.03,0-.28.08-.54.23-.77.16-.24.38-.43.67-.57.29-.14.63-.22,1.01-.22.58,0,1.06.16,1.45.47.39.31.6.75.64,1.31h-.74c-.04-.34-.18-.6-.41-.8-.24-.2-.55-.3-.93-.3s-.66.08-.86.23c-.21.15-.31.36-.31.62s.11.48.34.65c.22.17.64.33,1.25.46.69.16,1.19.38,1.5.64.31.27.47.63.47,1.1,0,.34-.09.65-.27.93-.18.29-.43.51-.76.68s-.7.25-1.13.25c-.68,0-1.23-.18-1.64-.53Z"/>
        <path class="cls-4" d="m331.87,272.23c-.22-.26-.33-.6-.33-1.01v-4.09h-1.13v-.62h1.13v-1.8l.74.28v1.52h1.38v.62h-1.38v3.98c0,.31.07.54.2.68.14.14.34.21.6.21.1,0,.2,0,.29-.03.09-.02.18-.05.29-.08v.61c-.25.08-.52.12-.8.12-.44,0-.77-.13-.99-.39Z"/>
        <path class="cls-4" d="m334.39,272.62h5.08v.67h-5.08v-.67Z"/>
        <path class="cls-4" d="m340.54,266.5h.74v1.01c.19-.3.48-.56.88-.79.39-.23.81-.34,1.26-.34.61,0,1.08.17,1.43.5.34.33.52.8.52,1.4v4.22h-.74v-4.12c0-.4-.12-.72-.36-.95-.24-.24-.58-.35-1.01-.35-.37,0-.73.13-1.08.39-.35.26-.65.61-.89,1.04v4h-.74v-6Z"/>
        <path class="cls-4" d="m347.11,272.13c-.33-.33-.49-.76-.49-1.3s.19-.99.58-1.3c.39-.32.88-.5,1.47-.56l1.86-.19v-.25c0-.97-.5-1.45-1.49-1.45-.38,0-.69.1-.94.31s-.39.48-.43.82h-.74c.05-.61.28-1.06.7-1.37.42-.3.9-.46,1.43-.46.7,0,1.24.19,1.63.56.39.38.58.9.58,1.56v2.77c0,.2.04.35.13.46.09.11.22.16.4.16.1,0,.21-.02.31-.05v.6c-.16.08-.35.12-.58.12-.3,0-.53-.09-.71-.28s-.28-.42-.3-.69c-.62.68-1.31,1.02-2.08,1.02-.57,0-1.02-.16-1.34-.49Zm3.42-1.4v-1.31l-1.64.17c-.47.05-.84.18-1.12.39-.27.21-.41.5-.41.86,0,.32.11.58.32.79s.5.31.86.31c.76,0,1.42-.4,1.98-1.2Z"/>
        <path class="cls-4" d="m353.28,266.5h.74v.9c.18-.28.45-.52.79-.72.34-.2.7-.3,1.07-.3.77,0,1.29.32,1.56.97.24-.3.53-.54.86-.71.34-.17.7-.26,1.1-.26.54,0,.95.15,1.25.46.3.31.44.74.44,1.29v4.37h-.74v-4.19c0-.82-.38-1.24-1.13-1.24-.31,0-.62.1-.93.31-.31.21-.55.47-.74.78v4.33h-.74v-4.14c0-.41-.1-.72-.29-.95s-.46-.34-.79-.34c-.35,0-.68.12-.98.37-.3.24-.55.54-.74.87v4.19h-.76v-6Z"/>
        <path class="cls-4" d="m363.69,272.23c-.43-.26-.77-.63-1.01-1.1s-.36-1.02-.36-1.63.13-1.15.38-1.63.6-.84,1.03-1.1c.44-.26.91-.39,1.43-.39s.99.12,1.4.35c.41.23.74.57.97,1.01.24.44.35.96.35,1.55v.36h-4.75c0,.68.2,1.23.58,1.65s.87.63,1.47.63c.53,0,.93-.12,1.21-.37.28-.24.47-.57.59-.97h.74c-.16.63-.45,1.13-.88,1.49s-.99.54-1.67.54c-.56,0-1.06-.13-1.49-.39Zm3.46-3.21c0-.35-.1-.68-.26-.98s-.4-.54-.7-.71-.64-.26-1.01-.26c-.57,0-1.03.18-1.39.54-.36.36-.57.83-.64,1.4h4.01Z"/>
        <path class="cls-4" d="m368.9,264.1h.91l-.12,2.59h-.67l-.12-2.59Zm1.63,0h.91l-.12,2.59h-.67l-.12-2.59Z"/>
        <path class="cls-4" d="m372.84,267.5c-.13-.13-.2-.29-.2-.46,0-.18.07-.34.2-.47s.29-.19.46-.19c.18,0,.34.06.47.19s.19.28.19.47-.06.33-.19.46-.28.2-.47.2-.33-.07-.46-.2Zm0,4.8c-.13-.13-.2-.29-.2-.46s.07-.34.2-.47.29-.19.46-.19c.18,0,.34.06.47.19s.19.28.19.47-.06.33-.19.46-.28.2-.47.2-.33-.07-.46-.2Z"/>
        <path class="cls-4" d="m377.68,264.1h.91l-.12,2.59h-.67l-.12-2.59Zm1.63,0h.91l-.12,2.59h-.67l-.12-2.59Z"/>
        <path class="cls-4" d="m382.31,272.23c-.43-.26-.77-.63-1.01-1.1s-.36-1.02-.36-1.63.13-1.15.38-1.63.6-.84,1.03-1.1c.44-.26.91-.39,1.43-.39s.99.12,1.4.35c.41.23.74.57.97,1.01.24.44.35.96.35,1.55v.36h-4.75c0,.68.2,1.23.58,1.65s.87.63,1.47.63c.53,0,.93-.12,1.21-.37.28-.24.47-.57.59-.97h.74c-.16.63-.45,1.13-.88,1.49s-.99.54-1.67.54c-.56,0-1.06-.13-1.49-.39Zm3.46-3.21c0-.35-.1-.68-.26-.98s-.4-.54-.7-.71-.64-.26-1.01-.26c-.57,0-1.03.18-1.39.54-.36.36-.57.83-.64,1.4h4.01Z"/>
        <path class="cls-4" d="m388.82,269.27l-1.82-2.77h.88l1.42,2.15,1.42-2.15h.88l-1.82,2.77,2.14,3.23h-.89l-1.72-2.65-1.72,2.65h-.89l2.14-3.23Z"/>
        <path class="cls-4" d="m393.08,272.13c-.33-.33-.49-.76-.49-1.3s.19-.99.58-1.3c.39-.32.88-.5,1.47-.56l1.86-.19v-.25c0-.97-.5-1.45-1.49-1.45-.38,0-.69.1-.94.31s-.39.48-.43.82h-.74c.05-.61.28-1.06.7-1.37.42-.3.9-.46,1.43-.46.7,0,1.24.19,1.63.56.39.38.58.9.58,1.56v2.77c0,.2.04.35.13.46.09.11.22.16.4.16.1,0,.21-.02.31-.05v.6c-.16.08-.35.12-.58.12-.3,0-.53-.09-.71-.28s-.28-.42-.3-.69c-.62.68-1.31,1.02-2.08,1.02-.57,0-1.02-.16-1.34-.49Zm3.42-1.4v-1.31l-1.64.17c-.47.05-.84.18-1.12.39-.27.21-.41.5-.41.86,0,.32.11.58.32.79s.5.31.86.31c.76,0,1.42-.4,1.98-1.2Z"/>
        <path class="cls-4" d="m399.25,266.5h.74v.9c.18-.28.45-.52.79-.72.34-.2.7-.3,1.07-.3.77,0,1.29.32,1.56.97.24-.3.53-.54.86-.71.34-.17.7-.26,1.1-.26.54,0,.95.15,1.25.46.3.31.44.74.44,1.29v4.37h-.74v-4.19c0-.82-.38-1.24-1.13-1.24-.31,0-.62.1-.93.31-.31.21-.55.47-.74.78v4.33h-.74v-4.14c0-.41-.1-.72-.29-.95s-.46-.34-.79-.34c-.35,0-.68.12-.98.37-.3.24-.55.54-.74.87v4.19h-.76v-6Z"/>
        <path class="cls-4" d="m408.61,266.5h.74v.85c.22-.28.5-.51.85-.7.35-.18.75-.28,1.22-.28.5,0,.94.12,1.33.37.39.24.7.6.92,1.07.22.47.34,1.03.34,1.68s-.11,1.21-.34,1.68c-.23.47-.54.83-.94,1.07-.4.24-.85.37-1.36.37-.42,0-.81-.08-1.15-.25-.34-.16-.63-.4-.86-.71v3.24h-.74v-8.4Zm4.12,4.79c.36-.42.54-1.02.54-1.79s-.17-1.38-.52-1.8-.84-.62-1.48-.62c-.41,0-.76.09-1.04.28-.29.18-.51.42-.65.72-.15.3-.22.61-.22.94v1.06c0,.29.08.58.25.86.16.29.39.53.68.71.29.19.62.28.99.28.61,0,1.09-.21,1.45-.63Z"/>
        <path class="cls-4" d="m415.28,263.74h.74v8.76h-.74v-8.76Z"/>
        <path class="cls-4" d="m418.66,272.23c-.43-.26-.77-.63-1.01-1.1s-.36-1.02-.36-1.63.13-1.15.38-1.63.6-.84,1.03-1.1c.44-.26.91-.39,1.43-.39s.99.12,1.4.35c.41.23.74.57.97,1.01.24.44.35.96.35,1.55v.36h-4.75c0,.68.2,1.23.58,1.65s.87.63,1.47.63c.53,0,.93-.12,1.21-.37.28-.24.47-.57.59-.97h.74c-.16.63-.45,1.13-.88,1.49s-.99.54-1.67.54c-.56,0-1.06-.13-1.49-.39Zm3.46-3.21c0-.35-.1-.68-.26-.98s-.4-.54-.7-.71-.64-.26-1.01-.26c-.57,0-1.03.18-1.39.54-.36.36-.57.83-.64,1.4h4.01Z"/>
        <path class="cls-4" d="m423.87,264.1h.91l-.12,2.59h-.67l-.12-2.59Zm1.63,0h.91l-.12,2.59h-.67l-.12-2.59Z"/>
        <path class="cls-4" d="m427.54,273.58c.22-.18.38-.35.5-.52.12-.17.18-.36.19-.56-.18,0-.32-.07-.44-.21s-.18-.29-.18-.44c0-.18.06-.34.19-.47s.28-.2.47-.2.35.07.47.2.19.3.19.51c0,.38-.1.71-.31,1.02-.21.3-.5.59-.89.85l-.19-.18Z"/>
        <path class="cls-4" d="m313.24,278.5h.91l-.12,2.59h-.67l-.12-2.59Zm1.63,0h.91l-.12,2.59h-.67l-.12-2.59Z"/>
        <path class="cls-4" d="m318.78,286.77c-.35-.17-.64-.38-.85-.64v.77h-.74v-8.76h.74v3.66c.25-.32.55-.57.92-.75.36-.18.76-.27,1.18-.27.5,0,.95.12,1.34.37.39.24.69.6.9,1.07s.32,1.03.32,1.69-.11,1.21-.34,1.68c-.22.47-.53.83-.92,1.07-.39.24-.84.37-1.33.37-.46,0-.86-.08-1.21-.25Zm2.54-1.07c.35-.42.52-1.02.52-1.8s-.18-1.36-.55-1.79c-.36-.42-.85-.63-1.47-.63-.37,0-.7.09-.98.28s-.51.42-.67.71c-.16.29-.24.58-.24.87v1.06c0,.33.07.64.22.94.14.3.36.54.64.72.28.18.63.28,1.04.28.65,0,1.15-.21,1.49-.62Z"/>
        <path class="cls-4" d="m323.83,279.67c-.12-.12-.17-.25-.17-.4,0-.16.06-.29.17-.41.12-.11.25-.17.4-.17.16,0,.3.06.41.17.11.11.17.25.17.41s-.06.29-.17.4c-.11.12-.25.17-.41.17-.15,0-.29-.06-.4-.17Zm.03,1.23h.74v6h-.74v-6Z"/>
        <path class="cls-4" d="m326.2,278.14h.74v8.76h-.74v-8.76Z"/>
        <path class="cls-4" d="m328.53,278.14h.74v8.76h-.74v-8.76Z"/>
        <path class="cls-4" d="m330.84,279.67c-.12-.12-.17-.25-.17-.4,0-.16.06-.29.17-.41.12-.11.25-.17.4-.17.16,0,.3.06.41.17.11.11.17.25.17.41s-.06.29-.17.4c-.11.12-.25.17-.41.17-.15,0-.29-.06-.4-.17Zm.03,1.23h.74v6h-.74v-6Z"/>
        <path class="cls-4" d="m333.21,280.9h.74v1.01c.19-.3.48-.56.88-.79.39-.23.81-.34,1.26-.34.61,0,1.08.17,1.43.5.34.33.52.8.52,1.4v4.22h-.74v-4.12c0-.4-.12-.72-.36-.95-.24-.24-.58-.35-1.01-.35-.37,0-.73.13-1.08.39-.35.26-.65.61-.89,1.04v4h-.74v-6Z"/>
        <path class="cls-4" d="m340.48,288.93c-.44-.33-.7-.76-.77-1.31h.86c.07.31.23.57.47.79.24.21.59.32,1.06.32.7,0,1.21-.17,1.51-.52.3-.35.46-.81.46-1.4v-.84c-.24.29-.54.52-.89.68-.36.17-.76.25-1.21.25-.53,0-1-.12-1.4-.37-.41-.24-.73-.6-.95-1.06-.23-.46-.34-1.01-.34-1.63s.12-1.17.36-1.63.57-.82.99-1.06.89-.37,1.42-.37c.46,0,.84.08,1.15.23.31.16.6.39.88.69v-.8h.74v5.96c0,.49-.1.93-.31,1.31s-.51.69-.91.91c-.4.22-.89.33-1.46.33-.66,0-1.21-.16-1.65-.49Zm3.05-3.25c.36-.35.53-.82.53-1.39v-.86c0-.37-.09-.7-.26-1s-.41-.53-.71-.7-.63-.25-.98-.25c-.61,0-1.11.2-1.51.61-.4.41-.59.99-.59,1.75s.2,1.34.59,1.75c.4.41.9.61,1.51.61s1.07-.18,1.42-.53Z"/>
        <path class="cls-4" d="m345.88,287.02h5.08v.67h-5.08v-.67Z"/>
        <path class="cls-4" d="m352.24,286.53c-.33-.33-.49-.76-.49-1.29s.19-.99.58-1.3.88-.5,1.47-.56l1.86-.19v-.25c0-.97-.5-1.45-1.49-1.45-.38,0-.69.1-.94.3-.25.21-.39.48-.43.82h-.74c.05-.61.28-1.06.7-1.37.42-.3.9-.46,1.43-.46.7,0,1.24.19,1.63.56.39.38.58.9.58,1.56v2.77c0,.2.04.35.13.46s.22.16.4.16c.1,0,.21-.02.31-.05v.6c-.16.08-.35.12-.58.12-.3,0-.53-.09-.71-.28-.18-.19-.28-.42-.3-.69-.62.68-1.31,1.02-2.08,1.02-.57,0-1.02-.16-1.34-.49Zm3.42-1.4v-1.31l-1.64.17c-.47.05-.84.18-1.12.39-.27.21-.41.5-.41.86,0,.32.11.58.32.79.22.2.5.31.86.31.76,0,1.42-.4,1.98-1.2Z"/>
        <path class="cls-4" d="m359.08,286.65c-.41-.24-.74-.6-.97-1.07s-.35-1.03-.35-1.68.12-1.21.36-1.68.56-.83.97-1.07c.4-.24.85-.37,1.35-.37.4,0,.77.08,1.12.23.34.16.63.37.86.64v-3.52h.74v8.76h-.74v-.84c-.22.28-.5.51-.83.69s-.7.27-1.12.27c-.51,0-.97-.12-1.39-.37Zm2.48-.59c.29-.18.5-.41.64-.69s.21-.59.21-.92v-1.09c0-.35-.08-.67-.23-.95-.16-.28-.38-.51-.67-.68s-.62-.25-1-.25c-.62,0-1.11.21-1.47.63-.36.42-.55,1.02-.55,1.79s.17,1.38.52,1.8c.35.42.85.62,1.49.62.41,0,.76-.09,1.04-.26Z"/>
        <path class="cls-4" d="m365.75,286.65c-.41-.24-.74-.6-.97-1.07s-.35-1.03-.35-1.68.12-1.21.36-1.68.56-.83.97-1.07c.4-.24.85-.37,1.35-.37.4,0,.77.08,1.12.23.34.16.63.37.86.64v-3.52h.74v8.76h-.74v-.84c-.22.28-.5.51-.83.69s-.7.27-1.12.27c-.51,0-.97-.12-1.39-.37Zm2.48-.59c.29-.18.5-.41.64-.69s.21-.59.21-.92v-1.09c0-.35-.08-.67-.23-.95-.16-.28-.38-.51-.67-.68s-.62-.25-1-.25c-.62,0-1.11.21-1.47.63-.36.42-.55,1.02-.55,1.79s.17,1.38.52,1.8c.35.42.85.62,1.49.62.41,0,.76-.09,1.04-.26Z"/>
        <path class="cls-4" d="m371.41,280.9h.74v.9c.17-.28.41-.52.71-.72.31-.2.64-.3.99-.3.23,0,.4.03.52.1l-.13.64c-.1-.02-.24-.04-.42-.04-.33,0-.65.12-.96.37-.31.24-.55.56-.71.94v4.12h-.74v-6Z"/>
        <path class="cls-4" d="m376.24,286.63c-.43-.26-.77-.63-1.01-1.1-.24-.47-.36-1.02-.36-1.63s.13-1.15.38-1.63c.25-.48.6-.84,1.03-1.1.44-.26.91-.39,1.43-.39s.99.12,1.4.35.74.57.97,1.01c.24.44.35.96.35,1.55v.36h-4.75c0,.68.2,1.23.58,1.65s.87.63,1.47.63c.53,0,.93-.12,1.21-.37.28-.24.47-.57.59-.97h.74c-.16.63-.45,1.13-.88,1.49-.43.36-.99.54-1.67.54-.56,0-1.06-.13-1.49-.39Zm3.46-3.21c0-.35-.1-.68-.26-.98-.17-.3-.4-.54-.7-.71s-.64-.26-1.01-.26c-.57,0-1.03.18-1.39.54-.36.36-.57.83-.64,1.4h4.01Z"/>
        <path class="cls-4" d="m381.95,286.49c-.42-.35-.66-.84-.72-1.46h.74c.07.45.24.78.51.98.27.21.65.31,1.13.31.37,0,.69-.1.97-.29.28-.2.42-.47.42-.82,0-.31-.13-.56-.4-.74-.26-.18-.72-.34-1.36-.47-.61-.13-1.06-.34-1.36-.62s-.44-.63-.44-1.03c0-.28.08-.54.23-.77.16-.24.38-.43.67-.57s.63-.22,1.01-.22c.58,0,1.06.16,1.45.47.39.31.6.75.64,1.31h-.74c-.04-.34-.18-.6-.41-.8-.24-.2-.55-.3-.93-.3s-.66.08-.86.23-.31.36-.31.62.11.48.34.65c.22.17.64.33,1.25.46.69.16,1.19.37,1.5.64.31.27.47.63.47,1.1,0,.34-.09.65-.27.93-.18.28-.43.51-.76.68s-.7.25-1.13.25c-.68,0-1.23-.18-1.64-.53Z"/>
        <path class="cls-4" d="m387.32,286.49c-.42-.35-.66-.84-.72-1.46h.74c.07.45.24.78.51.98.27.21.65.31,1.13.31.37,0,.69-.1.97-.29.28-.2.42-.47.42-.82,0-.31-.13-.56-.4-.74-.26-.18-.72-.34-1.36-.47-.61-.13-1.06-.34-1.36-.62s-.44-.63-.44-1.03c0-.28.08-.54.23-.77.16-.24.38-.43.67-.57s.63-.22,1.01-.22c.58,0,1.06.16,1.45.47.39.31.6.75.64,1.31h-.74c-.04-.34-.18-.6-.41-.8-.24-.2-.55-.3-.93-.3s-.66.08-.86.23-.31.36-.31.62.11.48.34.65c.22.17.64.33,1.25.46.69.16,1.19.37,1.5.64.31.27.47.63.47,1.1,0,.34-.09.65-.27.93-.18.28-.43.51-.76.68s-.7.25-1.13.25c-.68,0-1.23-.18-1.64-.53Z"/>
        <path class="cls-4" d="m391.7,278.5h.91l-.12,2.59h-.67l-.12-2.59Zm1.63,0h.91l-.12,2.59h-.67l-.12-2.59Z"/>
        <path class="cls-4" d="m395.64,281.9c-.13-.13-.2-.29-.2-.46s.07-.34.2-.47.29-.19.46-.19c.18,0,.34.06.47.19s.19.28.19.47-.06.33-.19.46c-.13.13-.28.2-.47.2s-.33-.07-.46-.2Zm0,4.8c-.13-.13-.2-.29-.2-.46s.07-.34.2-.47c.13-.13.29-.19.46-.19.18,0,.34.06.47.19.13.13.19.29.19.47s-.06.33-.19.46c-.13.13-.28.2-.47.2s-.33-.07-.46-.2Z"/>
        <path class="cls-4" d="m401.58,289.02c-.18-.18-.28-.44-.28-.78v-3.16c0-.26-.06-.46-.19-.61-.13-.15-.3-.23-.52-.23h-.25v-.7h.25c.22,0,.39-.08.52-.23s.19-.36.19-.61v-3.16c0-.34.09-.6.28-.78s.43-.28.73-.28h.54v.7h-.22c-.2,0-.35.05-.44.16-.1.1-.14.28-.14.54v2.83c0,.34-.07.61-.2.79s-.32.31-.56.39c.24.08.43.21.56.39.13.18.2.44.2.79v2.83c0,.26.05.44.14.54.1.1.24.16.44.16h.22v.7h-.54c-.3,0-.55-.09-.73-.28Z"/>
      </g>
    </g>
    <rect class="cls-8" x="305.35" y="160.5" width="100" height="80"/>
  </g>
  <text class="cls-10" transform="translate(313.41 173.85)"><tspan x="0" y="0">.json</tspan></text>
  <text class="cls-11" transform="translate(167.53 223.18)"><tspan x="0" y="0">N2</tspan><tspan class="cls-16" x="14.33" y="0">P</tspan><tspan x="20.46" y="0">_API.php</tspan></text>
  <g>
    <rect class="cls-17" x="290.5" y="320.5" width="100" height="80"/>
    <g class="cls-13">
      <text class="cls-3" transform="translate(297.8 360.5)"><tspan class="cls-12" x="0" y="0">Y</tspan><tspan class="cls-20" x="5.26" y="0">our username: </tspan><tspan class="cls-2" x="81.02" y="0">e</tspan><tspan x="87.05" y="0">xamp</tspan><tspan x="0" y="14.4">Clie</tspan><tspan class="cls-1" x="20.04" y="14.4">n</tspan><tspan x="26.18" y="14.4">ts: </tspan><tspan class="cls-21" x="40.56" y="14.4">e</tspan><tspan x="46.58" y="14.4">xample</tspan><tspan x="0" y="28.8">Appoi</tspan><tspan class="cls-1" x="30.07" y="28.8">n</tspan><tspan x="36.22" y="28.8">tme</tspan><tspan class="cls-18" x="56.02" y="28.8">n</tspan><tspan x="62.16" y="28.8">ts: 10</tspan><tspan x="0" y="43.2">Deals: 30</tspan></text>
    </g>
    <rect class="cls-8" x="290.5" y="320.5" width="100" height="80"/>
  </g>
  <line class="cls-7" x1="232.51" y1="250.43" x2="291.1" y2="320.5"/>
  <text class="cls-10" transform="translate(297.95 335.71)"><tspan x="0" y="0">End use</tspan><tspan class="cls-23" x="43.04" y="0">r</tspan><tspan x="47.57" y="0">s</tspan></text>
</svg>