<?xml version="1.0" encoding="UTF-8"?>
<svg id="Layer_1" data-name="Layer 1" xmlns="http://www.w3.org/2000/svg" viewBox="0 0 1055.35 362.43">
  <defs>
    <style>
      .cls-1 {
        fill: #231f20;
      }

      .cls-2 {
        fill: none;
        stroke: #231f20;
        stroke-linecap: round;
        stroke-linejoin: round;
        stroke-width: 9px;
      }
    </style>
  </defs>
  <text/>
  <g>
    <path class="cls-1" d="m438.6,290.24c-8.3,0-20.8-9.21-20.8-16.56,0-4.86,1.65-9.95,4.95-15.26,5.23-9.38,11.37-18.2,18.42-26.45l.34-.17c.79-1.02,1.19-1.87,1.19-2.54l-.17-.85c-5.35.91-9.66,1.42-12.96,1.53-7.39-.11-11.08-3.56-11.08-10.34v-1.7c1.25-8.7,5.06-16.16,11.43-22.38,1.14-1.24,2.39-1.86,3.75-1.86,1.02,0,2.07.4,3.16,1.19,1.08.79,1.62,1.75,1.62,2.88,0,1.7-1.36,4.47-4.09,8.31-4.09,6.44-6.14,10.63-6.14,12.55,0,1.7,1.31,2.54,3.92,2.54,1.82,0,4.63-.34,8.44-1.02,3.81-.68,6.62-1.02,8.44-1.02,2.96,0,5.17,1.08,6.65,3.22.68,1.13,1.02,2.26,1.02,3.39,0,1.81-.91,3.9-2.73,6.27-2.28,2.94-4.66,5.88-7.16,8.82-7.05,8.25-12.9,16.84-17.56,25.77l-.17.34c-1.59,2.26-2.39,4.18-2.39,5.76,0,1.25.48,2.43,1.45,3.56.96,1.13,3.51,3.59,4.83,3.94,2.45.65,3.66,1.51,8.23,1.83,2.2.15,5.75-1.84,9.83-3.2,10.3-3.43,48.41-16.63,73.3-32.61,4.66-3.96,0,0,6.48-3.05-.46,3.5,2.61,1.36-.46,3.5l.8,5.31c-19.21,16.05-84.46,38.3-92.53,38.3Z"/>
    <path class="cls-1" d="m526.59,290.24c-9.32-.23-13.98-5.59-13.98-16.11,0-3.5.63-7.01,1.88-10.51,5.12-15.71,14.04-28.88,26.77-39.5,4.77-4.07,9.72-6.1,14.84-6.1,2.39,0,4.43.76,6.14,2.29,1.71,1.53,2.56,3.76,2.56,6.7l-.17,2.71c-1.48,6.56-5,12.32-10.57,17.29-5.57,4.97-11.71,7.52-18.42,7.63-3.53,0-6.08.76-7.67,2.29-1.59,1.53-2.73,3.65-3.41,6.36l-.34,1.19c-1.82,4.97-2.73,9.16-2.73,12.55,0,4.3,2.56,6.56,7.67,6.78,9.66,0,29.78-8.42,60.37-25.26l4.09-2.2c3.07-2.15,6.59-3.39,10.57-3.73-.34,2.03-1.71,3.67-4.09,4.92l-1.02.51c-17.05,10.62-34.73,19.89-53.04,27.8-6.14,2.94-12.62,4.41-19.44,4.41Zm10.74-44.25c4.21,0,7.9-1.53,11.08-4.58,3.64-3.39,5.8-8.08,6.48-14.07-8.87,3.96-15.41,10.12-19.61,18.48l2.05.17Z"/>
    <path class="cls-1" d="m597.9,296.6c-1.02,0-1.99-.28-2.9-.85-2.73-1.47-4.4-3.31-5.03-5.51-.62-2.2-.94-4.38-.94-6.53,0-6.89,1.48-14.3,4.43-22.21,5.23-14.24,12.16-27.69,20.8-40.35.79-1.36,1.76-2.6,2.9-3.73,1.93-2.48,3.69-3.73,5.29-3.73.91,0,1.82.28,2.73.85,1.48,1.02,2.22,2.15,2.22,3.39,0,1.36-.57,3-1.71,4.92l-2.56,4.07c-10.23,14.36-17.79,30.58-22.68,48.66-.57,2.49-.97,4.97-1.19,7.46,0,.45.14,1.05.43,1.78.28.74.54,1.5.77,2.29,5.91-6.55,11.03-12.88,15.35-18.99.34-.34.85-1.07,1.53-2.2,10.23-14.92,21.77-28.71,34.62-41.37,3.41-3.28,6.42-5.76,9.04-7.46,2.04-1.58,3.52-2.37,4.43-2.37s1.82.48,2.73,1.44c.91.96,1.36,1.89,1.36,2.8,0,1.13-.91,2.54-2.73,4.24l-5.97,6.44c-2.05,2.04-3.98,4.13-5.8,6.27-3.53,3.73-6.08,8.08-7.68,13.05-.46,1.36-.68,2.54-.68,3.56,0,3.5,2.33,5.26,6.99,5.26,4.32,0,49.71-24.18,50.96-24.18,1.13,0-5.44,10.53-10.79,12.39-5.35,1.87-21.82,11.31-25.85,13.58-6.03,3.4-15.86,4.48-18.25,4.48-1.02,0-1.94-.06-2.73-.17-5.35-1.13-8.07-4.41-8.19-9.83v-1.87l.17-1.36c0-1.13-.23-2.48-.68-4.07-2.84,3.62-5.63,7.29-8.36,11.02l-9.55,13.56c-3.98,5.88-8.07,11.7-12.28,17.46-3.64,5.2-7.05,7.8-10.23,7.8Z"/>
    <path class="cls-1" d="m699.72,300.11c-14.31-.75-17.97-12.62-17.29-25.49.34-6.43,2.49-13.79,6.45-22.07,7.04-14.8,12.09-22.12,15.15-21.96,1.28.07,2.74.87,4.39,2.41.44,2.19,0,4.32-1.27,6.41l-9.9,19.52c-3.07,6.4-4.73,11.98-4.97,16.72-.39,7.45,4.05,8.72,11.51,11.81,31.02,12.84,57.88-22.51,55.88-25.19l4.16.46c2.82,4.36,4.88,6.4-2.05,15.33s-6.13,11.96-18.78,17.18c-.44.18-.89.32-1.36.42-6.75,1.35-37.03,4.71-41.93,4.45Z"/>
    <path class="cls-1" d="m807.09,297.26c-1.46-5.09.74-15.61.74-20.69,0-4.75.99-8.3,7.81-52.61l.17-3.05c0-1.58-.68-2.77-2.05-3.56-.68-.23-1.31-.34-1.88-.34-.91,0-2.22.62-3.92,1.87l-.34.17c-5.57,4.18-10.52,9.04-14.84,14.58-13.53,16.5-24.27,34.65-32.23,54.42-.91,2.71-1.82,4.69-2.73,5.93-.57.57-1.19.85-1.88.85-2.05,0-3.18-.59-3.41-1.78-.23-1.19-.34-2.23-.34-3.14l.34-3.73c.57-7.35,1.88-14.58,3.92-21.7,4.09-11.98,8.92-23.68,14.5-35.1,2.73-5.2,5.23-7.8,7.5-7.8.57,0,1.19.11,1.88.34,1.82,1.02,2.73,2.43,2.73,4.24,0,1.47-.68,3.67-2.05,6.61l-4.95,11.19-1.88,4.41c3.75-4.18,7.33-8.53,10.74-13.05,3.86-5.31,8.07-10.4,12.62-15.26.34-.23.62-.51.85-.85,7.05-7.69,13.07-11.53,18.08-11.53,4.09,0,7.05,3,8.87,8.99.45,1.81.68,3.67.68,5.59,0,.79.39-1.67-6.09,44.34-.46,2.37-2.11,12.45-2.11,14.82,0,11.98-1.13,8.91,4.44,8.91,9.38,0,19.54,3.35,25.97-6.71,6.42-10.06,6.63-9.95,20.61-27.02.57,1.02.08,7.12-.03,7.97-.11.85-.46,1.84-1.02,2.97-.57,1.13-1.62,2.52-3.15,4.15-1.54,1.64-2,5.52-13.31,22.7"/>
    <path class="cls-1" d="m872.61,295.5c-4.77,0-8.3-3.11-10.57-9.33-1.02-2.94-1.53-5.99-1.53-9.16v-1.02c1.25-18.88,8.01-35.55,20.29-50.02,3.3-3.96,7.27-7.06,11.94-9.32,2.96-1.24,5.68-1.87,8.19-1.87,5.8,0,10.17,3.5,13.13,10.51,1.36,4.07,2.05,8.31,2.05,12.72,0,7.91-2.33,16.39-6.99,25.43,3.98.79,7.79,1.19,11.43,1.19,3.07,0,6.02-.28,8.87-.85h.34c10.12-1.24,20.23-2.88,30.35-4.92l7.5-1.53c1.48-.45,2.9-.68,4.26-.68,1.82.11,2.73,1.08,2.73,2.88,0,2.15-1.82,3.34-5.46,3.56l-1.54.34c-17.28,4.52-34.85,7.01-52.7,7.46h-1.88c-6.82,0-12.39,2.83-16.71,8.48-4.09,6.1-9.55,10.85-16.37,14.24-2.73,1.25-5.17,1.87-7.33,1.87Zm29.51-43.03c3.34-5.88,4.03-12.04,3.92-13.01-.11-.96-.17-2.06-.17-3.31v-1.19c0-1.58-.2-3.19-.6-4.83-.4-1.64-1.68-2.91-3.84-3.81-1.02-.34-1.93-.51-2.73-.51-2.5,0-5.29,1.86-8.36,5.59-1.71,1.7-2.73,2.77-3.07,3.22l-.17.34c-7.39,9.72-12.45,20.52-15.18,32.38l-.17.68c-1.02,3.73-1.54,7.52-1.54,11.36.23,5.31,1.93,7.97,5.12,7.97,1.59,0,3.58-.68,5.99-2.05,4.94-3.18,7.95-8.13,11.87-15.04,2.79-4.91,3.35-6.87,4.18-8.92"/>
  </g>
  <path class="cls-2" d="m251.11,275.68s69.19-47.96,21.23-222.98c0,0,65.76,214.58,91.96,225.95s63.29-71.48,63.29-71.48"/>
  <path class="cls-2" d="m4.5,52.7c94.35-16.25,160.81,3.27,160.81,3.27,64.39-1.46,159.23,327.51-9.05,300.37s1.81-93.78,123.04-78.55,660.44,44.18,763.58-22.77"/>
  <path class="cls-2" d="m165.31,55.97c54.56,10.82,60.14,11.29,107.03-3.27,81.32-25.24,173.41-1.41,251.35,27.09,27.68,10.12,171.25,85.49,200.71,86.42,47.45,1.5,170.41-113.51,136.1-113.51-105.65,0-155.75,44-11.16,43.96,149.26-.04,254.05-44.02,173.7-92.16"/>
</svg>