<?xml version="1.0" encoding="UTF-8"?>
<svg id="Layer_1" data-name="Layer 1" xmlns="http://www.w3.org/2000/svg" viewBox="0 0 439.34 443.4">
  <path d="m181.18,347.91c-16.35-1.56-31.22-9.64-44.59-24.24l20.57-18.85c8.79,9.31,17.66,14.54,26.6,15.71,8.94,1.17,17.31-1.83,25.13-8.99,8.11-7.43,12.04-15.43,11.77-24.01-.26-8.57-4.45-17.29-12.55-26.13l-100.73-109.93,21.23-19.46,98.1,107.05c14.32,15.63,21.63,31.45,21.92,47.46.29,16.01-7.01,30.84-21.9,44.48-14.01,12.84-29.19,18.47-45.54,16.91Z"/>
  <path d="m185.73,115.47l-39.37,36.08-17.83-19.46,99.97-91.61,17.84,19.46-39.37,36.08,124.04,135.36-21.23,19.46-124.04-135.37Z"/>
</svg>